G04 EAGLE Gerber RS-274X export*
G75*
%MOMM*%
%FSLAX34Y34*%
%LPD*%
%IN*%
%IPPOS*%
%AMOC8*
5,1,8,0,0,1.08239X$1,22.5*%
G01*
%ADD10C,0.254000*%


D10*
X0Y0D02*
X812800Y0D01*
X812800Y889000D01*
X0Y889000D01*
X0Y0D01*
X705800Y113600D02*
X705802Y113556D01*
X705808Y113513D01*
X705817Y113471D01*
X705830Y113429D01*
X705847Y113389D01*
X705867Y113350D01*
X705890Y113313D01*
X705917Y113279D01*
X705946Y113246D01*
X705979Y113217D01*
X706013Y113190D01*
X706050Y113167D01*
X706089Y113147D01*
X706129Y113130D01*
X706171Y113117D01*
X706213Y113108D01*
X706256Y113102D01*
X706300Y113100D01*
X722300Y113100D01*
X722344Y113102D01*
X722387Y113108D01*
X722429Y113117D01*
X722471Y113130D01*
X722511Y113147D01*
X722550Y113167D01*
X722587Y113190D01*
X722621Y113217D01*
X722654Y113246D01*
X722683Y113279D01*
X722710Y113313D01*
X722733Y113350D01*
X722753Y113389D01*
X722770Y113429D01*
X722783Y113471D01*
X722792Y113513D01*
X722798Y113556D01*
X722800Y113600D01*
X722800Y122600D01*
X722798Y122644D01*
X722792Y122687D01*
X722783Y122729D01*
X722770Y122771D01*
X722753Y122811D01*
X722733Y122850D01*
X722710Y122887D01*
X722683Y122921D01*
X722654Y122954D01*
X722621Y122983D01*
X722587Y123010D01*
X722550Y123033D01*
X722511Y123053D01*
X722471Y123070D01*
X722429Y123083D01*
X722387Y123092D01*
X722344Y123098D01*
X722300Y123100D01*
X706300Y123100D01*
X706256Y123098D01*
X706213Y123092D01*
X706171Y123083D01*
X706129Y123070D01*
X706089Y123053D01*
X706050Y123033D01*
X706013Y123010D01*
X705979Y122983D01*
X705946Y122954D01*
X705917Y122921D01*
X705890Y122887D01*
X705867Y122850D01*
X705847Y122811D01*
X705830Y122771D01*
X705817Y122729D01*
X705808Y122687D01*
X705802Y122644D01*
X705800Y122600D01*
X705800Y113600D01*
X739300Y157100D02*
X739302Y157056D01*
X739308Y157013D01*
X739317Y156971D01*
X739330Y156929D01*
X739347Y156889D01*
X739367Y156850D01*
X739390Y156813D01*
X739417Y156779D01*
X739446Y156746D01*
X739479Y156717D01*
X739513Y156690D01*
X739550Y156667D01*
X739589Y156647D01*
X739629Y156630D01*
X739671Y156617D01*
X739713Y156608D01*
X739756Y156602D01*
X739800Y156600D01*
X748800Y156600D01*
X748844Y156602D01*
X748887Y156608D01*
X748929Y156617D01*
X748971Y156630D01*
X749011Y156647D01*
X749050Y156667D01*
X749087Y156690D01*
X749121Y156717D01*
X749154Y156746D01*
X749183Y156779D01*
X749210Y156813D01*
X749233Y156850D01*
X749253Y156889D01*
X749270Y156929D01*
X749283Y156971D01*
X749292Y157013D01*
X749298Y157056D01*
X749300Y157100D01*
X749300Y173100D01*
X749298Y173144D01*
X749292Y173187D01*
X749283Y173229D01*
X749270Y173271D01*
X749253Y173311D01*
X749233Y173350D01*
X749210Y173387D01*
X749183Y173421D01*
X749154Y173454D01*
X749121Y173483D01*
X749087Y173510D01*
X749050Y173533D01*
X749011Y173553D01*
X748971Y173570D01*
X748929Y173583D01*
X748887Y173592D01*
X748844Y173598D01*
X748800Y173600D01*
X739800Y173600D01*
X739756Y173598D01*
X739713Y173592D01*
X739671Y173583D01*
X739629Y173570D01*
X739589Y173553D01*
X739550Y173533D01*
X739513Y173510D01*
X739479Y173483D01*
X739446Y173454D01*
X739417Y173421D01*
X739390Y173387D01*
X739367Y173350D01*
X739347Y173311D01*
X739330Y173271D01*
X739317Y173229D01*
X739308Y173187D01*
X739302Y173144D01*
X739300Y173100D01*
X739300Y157100D01*
X679300Y157100D02*
X679302Y157056D01*
X679308Y157013D01*
X679317Y156971D01*
X679330Y156929D01*
X679347Y156889D01*
X679367Y156850D01*
X679390Y156813D01*
X679417Y156779D01*
X679446Y156746D01*
X679479Y156717D01*
X679513Y156690D01*
X679550Y156667D01*
X679589Y156647D01*
X679629Y156630D01*
X679671Y156617D01*
X679713Y156608D01*
X679756Y156602D01*
X679800Y156600D01*
X688800Y156600D01*
X688844Y156602D01*
X688887Y156608D01*
X688929Y156617D01*
X688971Y156630D01*
X689011Y156647D01*
X689050Y156667D01*
X689087Y156690D01*
X689121Y156717D01*
X689154Y156746D01*
X689183Y156779D01*
X689210Y156813D01*
X689233Y156850D01*
X689253Y156889D01*
X689270Y156929D01*
X689283Y156971D01*
X689292Y157013D01*
X689298Y157056D01*
X689300Y157100D01*
X689300Y173100D01*
X689298Y173144D01*
X689292Y173187D01*
X689283Y173229D01*
X689270Y173271D01*
X689253Y173311D01*
X689233Y173350D01*
X689210Y173387D01*
X689183Y173421D01*
X689154Y173454D01*
X689121Y173483D01*
X689087Y173510D01*
X689050Y173533D01*
X689011Y173553D01*
X688971Y173570D01*
X688929Y173583D01*
X688887Y173592D01*
X688844Y173598D01*
X688800Y173600D01*
X679800Y173600D01*
X679756Y173598D01*
X679713Y173592D01*
X679671Y173583D01*
X679629Y173570D01*
X679589Y173553D01*
X679550Y173533D01*
X679513Y173510D01*
X679479Y173483D01*
X679446Y173454D01*
X679417Y173421D01*
X679390Y173387D01*
X679367Y173350D01*
X679347Y173311D01*
X679330Y173271D01*
X679317Y173229D01*
X679308Y173187D01*
X679302Y173144D01*
X679300Y173100D01*
X679300Y157100D01*
X228000Y235291D02*
X228077Y236270D01*
X228231Y237241D01*
X228460Y238196D01*
X228764Y239130D01*
X229139Y240037D01*
X229585Y240912D01*
X230099Y241750D01*
X230676Y242545D01*
X231314Y243292D01*
X232008Y243986D01*
X232755Y244624D01*
X233550Y245201D01*
X234388Y245715D01*
X235263Y246161D01*
X236170Y246536D01*
X237104Y246840D01*
X238060Y247069D01*
X239030Y247223D01*
X240009Y247300D01*
X240991Y247300D01*
X241970Y247223D01*
X242941Y247069D01*
X243896Y246840D01*
X244830Y246536D01*
X245737Y246161D01*
X246612Y245715D01*
X247450Y245201D01*
X248245Y244624D01*
X248992Y243986D01*
X249686Y243292D01*
X250324Y242545D01*
X250901Y241750D01*
X251415Y240912D01*
X251861Y240037D01*
X252236Y239130D01*
X252540Y238196D01*
X252769Y237241D01*
X252923Y236270D01*
X253000Y235291D01*
X253000Y234309D01*
X252923Y233330D01*
X252769Y232360D01*
X252540Y231404D01*
X252236Y230470D01*
X251861Y229563D01*
X251415Y228688D01*
X250901Y227850D01*
X250324Y227055D01*
X249686Y226308D01*
X248992Y225614D01*
X248245Y224976D01*
X247450Y224399D01*
X246612Y223885D01*
X245737Y223439D01*
X244830Y223064D01*
X243896Y222760D01*
X242941Y222531D01*
X241970Y222377D01*
X240991Y222300D01*
X240009Y222300D01*
X239030Y222377D01*
X238060Y222531D01*
X237104Y222760D01*
X236170Y223064D01*
X235263Y223439D01*
X234388Y223885D01*
X233550Y224399D01*
X232755Y224976D01*
X232008Y225614D01*
X231314Y226308D01*
X230676Y227055D01*
X230099Y227850D01*
X229585Y228688D01*
X229139Y229563D01*
X228764Y230470D01*
X228460Y231404D01*
X228231Y232360D01*
X228077Y233330D01*
X228000Y234309D01*
X228000Y235291D01*
X128000Y235291D02*
X128077Y236270D01*
X128231Y237241D01*
X128460Y238196D01*
X128764Y239130D01*
X129139Y240037D01*
X129585Y240912D01*
X130099Y241750D01*
X130676Y242545D01*
X131314Y243292D01*
X132008Y243986D01*
X132755Y244624D01*
X133550Y245201D01*
X134388Y245715D01*
X135263Y246161D01*
X136170Y246536D01*
X137104Y246840D01*
X138060Y247069D01*
X139030Y247223D01*
X140009Y247300D01*
X140991Y247300D01*
X141970Y247223D01*
X142941Y247069D01*
X143896Y246840D01*
X144830Y246536D01*
X145737Y246161D01*
X146612Y245715D01*
X147450Y245201D01*
X148245Y244624D01*
X148992Y243986D01*
X149686Y243292D01*
X150324Y242545D01*
X150901Y241750D01*
X151415Y240912D01*
X151861Y240037D01*
X152236Y239130D01*
X152540Y238196D01*
X152769Y237241D01*
X152923Y236270D01*
X153000Y235291D01*
X153000Y234309D01*
X152923Y233330D01*
X152769Y232360D01*
X152540Y231404D01*
X152236Y230470D01*
X151861Y229563D01*
X151415Y228688D01*
X150901Y227850D01*
X150324Y227055D01*
X149686Y226308D01*
X148992Y225614D01*
X148245Y224976D01*
X147450Y224399D01*
X146612Y223885D01*
X145737Y223439D01*
X144830Y223064D01*
X143896Y222760D01*
X142941Y222531D01*
X141970Y222377D01*
X140991Y222300D01*
X140009Y222300D01*
X139030Y222377D01*
X138060Y222531D01*
X137104Y222760D01*
X136170Y223064D01*
X135263Y223439D01*
X134388Y223885D01*
X133550Y224399D01*
X132755Y224976D01*
X132008Y225614D01*
X131314Y226308D01*
X130676Y227055D01*
X130099Y227850D01*
X129585Y228688D01*
X129139Y229563D01*
X128764Y230470D01*
X128460Y231404D01*
X128231Y232360D01*
X128077Y233330D01*
X128000Y234309D01*
X128000Y235291D01*
X61348Y136300D02*
X60447Y136229D01*
X59555Y136088D01*
X58676Y135877D01*
X57817Y135598D01*
X56982Y135252D01*
X56177Y134841D01*
X55406Y134369D01*
X54675Y133838D01*
X53988Y133251D01*
X53349Y132612D01*
X52762Y131925D01*
X52231Y131194D01*
X51759Y130423D01*
X51348Y129618D01*
X51002Y128783D01*
X50723Y127924D01*
X50512Y127045D01*
X50371Y126153D01*
X50300Y125252D01*
X50300Y124348D01*
X50371Y123447D01*
X50512Y122555D01*
X50723Y121676D01*
X51002Y120817D01*
X51348Y119982D01*
X51759Y119177D01*
X52231Y118406D01*
X52762Y117675D01*
X53349Y116988D01*
X53988Y116349D01*
X54675Y115762D01*
X55406Y115231D01*
X56177Y114759D01*
X56982Y114348D01*
X57817Y114002D01*
X58676Y113723D01*
X59555Y113512D01*
X60447Y113371D01*
X61348Y113300D01*
X62252Y113300D01*
X63153Y113371D01*
X64045Y113512D01*
X64924Y113723D01*
X65783Y114002D01*
X66618Y114348D01*
X67423Y114759D01*
X68194Y115231D01*
X68925Y115762D01*
X69612Y116349D01*
X70251Y116988D01*
X70838Y117675D01*
X71369Y118406D01*
X71841Y119177D01*
X72252Y119982D01*
X72598Y120817D01*
X72877Y121676D01*
X73088Y122555D01*
X73229Y123447D01*
X73300Y124348D01*
X73300Y125252D01*
X73229Y126153D01*
X73088Y127045D01*
X72877Y127924D01*
X72598Y128783D01*
X72252Y129618D01*
X71841Y130423D01*
X71369Y131194D01*
X70838Y131925D01*
X70251Y132612D01*
X69612Y133251D01*
X68925Y133838D01*
X68194Y134369D01*
X67423Y134841D01*
X66618Y135252D01*
X65783Y135598D01*
X64924Y135877D01*
X64045Y136088D01*
X63153Y136229D01*
X62252Y136300D01*
X61348Y136300D01*
X61348Y267700D02*
X60447Y267629D01*
X59555Y267488D01*
X58676Y267277D01*
X57817Y266998D01*
X56982Y266652D01*
X56177Y266241D01*
X55406Y265769D01*
X54675Y265238D01*
X53988Y264651D01*
X53349Y264012D01*
X52762Y263325D01*
X52231Y262594D01*
X51759Y261823D01*
X51348Y261018D01*
X51002Y260183D01*
X50723Y259324D01*
X50512Y258445D01*
X50371Y257553D01*
X50300Y256652D01*
X50300Y255748D01*
X50371Y254847D01*
X50512Y253955D01*
X50723Y253076D01*
X51002Y252217D01*
X51348Y251382D01*
X51759Y250577D01*
X52231Y249806D01*
X52762Y249075D01*
X53349Y248388D01*
X53988Y247749D01*
X54675Y247162D01*
X55406Y246631D01*
X56177Y246159D01*
X56982Y245748D01*
X57817Y245402D01*
X58676Y245123D01*
X59555Y244912D01*
X60447Y244771D01*
X61348Y244700D01*
X62252Y244700D01*
X63153Y244771D01*
X64045Y244912D01*
X64924Y245123D01*
X65783Y245402D01*
X66618Y245748D01*
X67423Y246159D01*
X68194Y246631D01*
X68925Y247162D01*
X69612Y247749D01*
X70251Y248388D01*
X70838Y249075D01*
X71369Y249806D01*
X71841Y250577D01*
X72252Y251382D01*
X72598Y252217D01*
X72877Y253076D01*
X73088Y253955D01*
X73229Y254847D01*
X73300Y255748D01*
X73300Y256652D01*
X73229Y257553D01*
X73088Y258445D01*
X72877Y259324D01*
X72598Y260183D01*
X72252Y261018D01*
X71841Y261823D01*
X71369Y262594D01*
X70838Y263325D01*
X70251Y264012D01*
X69612Y264651D01*
X68925Y265238D01*
X68194Y265769D01*
X67423Y266241D01*
X66618Y266652D01*
X65783Y266998D01*
X64924Y267277D01*
X64045Y267488D01*
X63153Y267629D01*
X62252Y267700D01*
X61348Y267700D01*
X50600Y698009D02*
X50523Y697030D01*
X50369Y696060D01*
X50140Y695104D01*
X49836Y694170D01*
X49461Y693263D01*
X49015Y692388D01*
X48501Y691550D01*
X47924Y690755D01*
X47286Y690008D01*
X46592Y689314D01*
X45845Y688676D01*
X45050Y688099D01*
X44212Y687585D01*
X43337Y687139D01*
X42430Y686764D01*
X41496Y686460D01*
X40541Y686231D01*
X39570Y686077D01*
X38591Y686000D01*
X37609Y686000D01*
X36630Y686077D01*
X35660Y686231D01*
X34704Y686460D01*
X33770Y686764D01*
X32863Y687139D01*
X31988Y687585D01*
X31150Y688099D01*
X30355Y688676D01*
X29608Y689314D01*
X28914Y690008D01*
X28276Y690755D01*
X27699Y691550D01*
X27185Y692388D01*
X26739Y693263D01*
X26364Y694170D01*
X26060Y695104D01*
X25831Y696060D01*
X25677Y697030D01*
X25600Y698009D01*
X25600Y698991D01*
X25677Y699970D01*
X25831Y700941D01*
X26060Y701896D01*
X26364Y702830D01*
X26739Y703737D01*
X27185Y704612D01*
X27699Y705450D01*
X28276Y706245D01*
X28914Y706992D01*
X29608Y707686D01*
X30355Y708324D01*
X31150Y708901D01*
X31988Y709415D01*
X32863Y709861D01*
X33770Y710236D01*
X34704Y710540D01*
X35660Y710769D01*
X36630Y710923D01*
X37609Y711000D01*
X38591Y711000D01*
X39570Y710923D01*
X40541Y710769D01*
X41496Y710540D01*
X42430Y710236D01*
X43337Y709861D01*
X44212Y709415D01*
X45050Y708901D01*
X45845Y708324D01*
X46592Y707686D01*
X47286Y706992D01*
X47924Y706245D01*
X48501Y705450D01*
X49015Y704612D01*
X49461Y703737D01*
X49836Y702830D01*
X50140Y701896D01*
X50369Y700941D01*
X50523Y699970D01*
X50600Y698991D01*
X50600Y698009D01*
X800600Y698009D02*
X800523Y697030D01*
X800369Y696060D01*
X800140Y695104D01*
X799836Y694170D01*
X799461Y693263D01*
X799015Y692388D01*
X798501Y691550D01*
X797924Y690755D01*
X797286Y690008D01*
X796592Y689314D01*
X795845Y688676D01*
X795050Y688099D01*
X794212Y687585D01*
X793337Y687139D01*
X792430Y686764D01*
X791496Y686460D01*
X790541Y686231D01*
X789570Y686077D01*
X788591Y686000D01*
X787609Y686000D01*
X786630Y686077D01*
X785660Y686231D01*
X784704Y686460D01*
X783770Y686764D01*
X782863Y687139D01*
X781988Y687585D01*
X781150Y688099D01*
X780355Y688676D01*
X779608Y689314D01*
X778914Y690008D01*
X778276Y690755D01*
X777699Y691550D01*
X777185Y692388D01*
X776739Y693263D01*
X776364Y694170D01*
X776060Y695104D01*
X775831Y696060D01*
X775677Y697030D01*
X775600Y698009D01*
X775600Y698991D01*
X775677Y699970D01*
X775831Y700941D01*
X776060Y701896D01*
X776364Y702830D01*
X776739Y703737D01*
X777185Y704612D01*
X777699Y705450D01*
X778276Y706245D01*
X778914Y706992D01*
X779608Y707686D01*
X780355Y708324D01*
X781150Y708901D01*
X781988Y709415D01*
X782863Y709861D01*
X783770Y710236D01*
X784704Y710540D01*
X785660Y710769D01*
X786630Y710923D01*
X787609Y711000D01*
X788591Y711000D01*
X789570Y710923D01*
X790541Y710769D01*
X791496Y710540D01*
X792430Y710236D01*
X793337Y709861D01*
X794212Y709415D01*
X795050Y708901D01*
X795845Y708324D01*
X796592Y707686D01*
X797286Y706992D01*
X797924Y706245D01*
X798501Y705450D01*
X799015Y704612D01*
X799461Y703737D01*
X799836Y702830D01*
X800140Y701896D01*
X800369Y700941D01*
X800523Y699970D01*
X800600Y698991D01*
X800600Y698009D01*
X50600Y388009D02*
X50523Y387030D01*
X50369Y386060D01*
X50140Y385104D01*
X49836Y384170D01*
X49461Y383263D01*
X49015Y382388D01*
X48501Y381550D01*
X47924Y380755D01*
X47286Y380008D01*
X46592Y379314D01*
X45845Y378676D01*
X45050Y378099D01*
X44212Y377585D01*
X43337Y377139D01*
X42430Y376764D01*
X41496Y376460D01*
X40541Y376231D01*
X39570Y376077D01*
X38591Y376000D01*
X37609Y376000D01*
X36630Y376077D01*
X35660Y376231D01*
X34704Y376460D01*
X33770Y376764D01*
X32863Y377139D01*
X31988Y377585D01*
X31150Y378099D01*
X30355Y378676D01*
X29608Y379314D01*
X28914Y380008D01*
X28276Y380755D01*
X27699Y381550D01*
X27185Y382388D01*
X26739Y383263D01*
X26364Y384170D01*
X26060Y385104D01*
X25831Y386060D01*
X25677Y387030D01*
X25600Y388009D01*
X25600Y388991D01*
X25677Y389970D01*
X25831Y390941D01*
X26060Y391896D01*
X26364Y392830D01*
X26739Y393737D01*
X27185Y394612D01*
X27699Y395450D01*
X28276Y396245D01*
X28914Y396992D01*
X29608Y397686D01*
X30355Y398324D01*
X31150Y398901D01*
X31988Y399415D01*
X32863Y399861D01*
X33770Y400236D01*
X34704Y400540D01*
X35660Y400769D01*
X36630Y400923D01*
X37609Y401000D01*
X38591Y401000D01*
X39570Y400923D01*
X40541Y400769D01*
X41496Y400540D01*
X42430Y400236D01*
X43337Y399861D01*
X44212Y399415D01*
X45050Y398901D01*
X45845Y398324D01*
X46592Y397686D01*
X47286Y396992D01*
X47924Y396245D01*
X48501Y395450D01*
X49015Y394612D01*
X49461Y393737D01*
X49836Y392830D01*
X50140Y391896D01*
X50369Y390941D01*
X50523Y389970D01*
X50600Y388991D01*
X50600Y388009D01*
X800600Y388009D02*
X800523Y387030D01*
X800369Y386060D01*
X800140Y385104D01*
X799836Y384170D01*
X799461Y383263D01*
X799015Y382388D01*
X798501Y381550D01*
X797924Y380755D01*
X797286Y380008D01*
X796592Y379314D01*
X795845Y378676D01*
X795050Y378099D01*
X794212Y377585D01*
X793337Y377139D01*
X792430Y376764D01*
X791496Y376460D01*
X790541Y376231D01*
X789570Y376077D01*
X788591Y376000D01*
X787609Y376000D01*
X786630Y376077D01*
X785660Y376231D01*
X784704Y376460D01*
X783770Y376764D01*
X782863Y377139D01*
X781988Y377585D01*
X781150Y378099D01*
X780355Y378676D01*
X779608Y379314D01*
X778914Y380008D01*
X778276Y380755D01*
X777699Y381550D01*
X777185Y382388D01*
X776739Y383263D01*
X776364Y384170D01*
X776060Y385104D01*
X775831Y386060D01*
X775677Y387030D01*
X775600Y388009D01*
X775600Y388991D01*
X775677Y389970D01*
X775831Y390941D01*
X776060Y391896D01*
X776364Y392830D01*
X776739Y393737D01*
X777185Y394612D01*
X777699Y395450D01*
X778276Y396245D01*
X778914Y396992D01*
X779608Y397686D01*
X780355Y398324D01*
X781150Y398901D01*
X781988Y399415D01*
X782863Y399861D01*
X783770Y400236D01*
X784704Y400540D01*
X785660Y400769D01*
X786630Y400923D01*
X787609Y401000D01*
X788591Y401000D01*
X789570Y400923D01*
X790541Y400769D01*
X791496Y400540D01*
X792430Y400236D01*
X793337Y399861D01*
X794212Y399415D01*
X795050Y398901D01*
X795845Y398324D01*
X796592Y397686D01*
X797286Y396992D01*
X797924Y396245D01*
X798501Y395450D01*
X799015Y394612D01*
X799461Y393737D01*
X799836Y392830D01*
X800140Y391896D01*
X800369Y390941D01*
X800523Y389970D01*
X800600Y388991D01*
X800600Y388009D01*
M02*
