G04 EAGLE Gerber RS-274X export*
G75*
%MOMM*%
%FSLAX34Y34*%
%LPD*%
%INSilkscreen Top*%
%IPPOS*%
%AMOC8*
5,1,8,0,0,1.08239X$1,22.5*%
G01*
%ADD10C,0.203200*%
%ADD11C,0.254000*%
%ADD12C,0.127000*%
%ADD13C,0.152400*%
%ADD14C,0.200000*%


D10*
X255665Y102616D02*
X252166Y102616D01*
X252049Y102618D01*
X251932Y102624D01*
X251816Y102634D01*
X251699Y102647D01*
X251584Y102665D01*
X251469Y102686D01*
X251355Y102711D01*
X251241Y102740D01*
X251129Y102773D01*
X251018Y102810D01*
X250908Y102850D01*
X250800Y102894D01*
X250693Y102941D01*
X250587Y102992D01*
X250484Y103047D01*
X250382Y103105D01*
X250283Y103166D01*
X250185Y103230D01*
X250090Y103298D01*
X249997Y103369D01*
X249906Y103443D01*
X249818Y103520D01*
X249733Y103600D01*
X249650Y103683D01*
X249570Y103768D01*
X249493Y103856D01*
X249419Y103947D01*
X249348Y104040D01*
X249280Y104135D01*
X249216Y104233D01*
X249155Y104332D01*
X249097Y104434D01*
X249042Y104537D01*
X248991Y104643D01*
X248944Y104750D01*
X248900Y104858D01*
X248860Y104968D01*
X248823Y105079D01*
X248790Y105191D01*
X248761Y105305D01*
X248736Y105419D01*
X248715Y105534D01*
X248697Y105649D01*
X248684Y105766D01*
X248674Y105882D01*
X248668Y105999D01*
X248666Y106116D01*
X248666Y114864D01*
X248668Y114981D01*
X248674Y115098D01*
X248684Y115214D01*
X248697Y115331D01*
X248715Y115446D01*
X248736Y115561D01*
X248761Y115675D01*
X248790Y115789D01*
X248823Y115901D01*
X248860Y116012D01*
X248900Y116122D01*
X248944Y116230D01*
X248991Y116337D01*
X249042Y116443D01*
X249097Y116546D01*
X249155Y116648D01*
X249216Y116747D01*
X249280Y116845D01*
X249348Y116940D01*
X249419Y117033D01*
X249493Y117124D01*
X249570Y117212D01*
X249650Y117297D01*
X249733Y117380D01*
X249818Y117460D01*
X249906Y117537D01*
X249997Y117611D01*
X250090Y117682D01*
X250185Y117750D01*
X250283Y117814D01*
X250382Y117875D01*
X250484Y117933D01*
X250587Y117988D01*
X250693Y118039D01*
X250800Y118086D01*
X250908Y118130D01*
X251018Y118170D01*
X251129Y118207D01*
X251241Y118240D01*
X251355Y118269D01*
X251469Y118294D01*
X251584Y118315D01*
X251699Y118333D01*
X251816Y118346D01*
X251932Y118356D01*
X252049Y118362D01*
X252166Y118364D01*
X255665Y118364D01*
X261572Y109615D02*
X261572Y106116D01*
X261572Y109615D02*
X261574Y109733D01*
X261580Y109851D01*
X261590Y109969D01*
X261604Y110086D01*
X261622Y110203D01*
X261644Y110320D01*
X261669Y110435D01*
X261699Y110549D01*
X261733Y110663D01*
X261770Y110775D01*
X261811Y110886D01*
X261856Y110995D01*
X261904Y111103D01*
X261956Y111209D01*
X262012Y111314D01*
X262071Y111416D01*
X262133Y111516D01*
X262199Y111614D01*
X262268Y111710D01*
X262341Y111804D01*
X262416Y111895D01*
X262495Y111983D01*
X262576Y112069D01*
X262661Y112152D01*
X262748Y112232D01*
X262837Y112309D01*
X262930Y112383D01*
X263024Y112453D01*
X263121Y112521D01*
X263221Y112585D01*
X263322Y112646D01*
X263425Y112703D01*
X263531Y112757D01*
X263638Y112808D01*
X263746Y112854D01*
X263856Y112897D01*
X263968Y112936D01*
X264081Y112972D01*
X264195Y113003D01*
X264310Y113031D01*
X264425Y113055D01*
X264542Y113075D01*
X264659Y113091D01*
X264777Y113103D01*
X264895Y113111D01*
X265013Y113115D01*
X265131Y113115D01*
X265249Y113111D01*
X265367Y113103D01*
X265485Y113091D01*
X265602Y113075D01*
X265719Y113055D01*
X265834Y113031D01*
X265949Y113003D01*
X266063Y112972D01*
X266176Y112936D01*
X266288Y112897D01*
X266398Y112854D01*
X266506Y112808D01*
X266613Y112757D01*
X266719Y112703D01*
X266822Y112646D01*
X266923Y112585D01*
X267023Y112521D01*
X267120Y112453D01*
X267214Y112383D01*
X267307Y112309D01*
X267396Y112232D01*
X267483Y112152D01*
X267568Y112069D01*
X267649Y111983D01*
X267728Y111895D01*
X267803Y111804D01*
X267876Y111710D01*
X267945Y111614D01*
X268011Y111516D01*
X268073Y111416D01*
X268132Y111314D01*
X268188Y111209D01*
X268240Y111103D01*
X268288Y110995D01*
X268333Y110886D01*
X268374Y110775D01*
X268411Y110663D01*
X268445Y110549D01*
X268475Y110435D01*
X268500Y110320D01*
X268522Y110203D01*
X268540Y110086D01*
X268554Y109969D01*
X268564Y109851D01*
X268570Y109733D01*
X268572Y109615D01*
X268571Y109615D02*
X268571Y106116D01*
X268572Y106116D02*
X268570Y105998D01*
X268564Y105880D01*
X268554Y105762D01*
X268540Y105645D01*
X268522Y105528D01*
X268500Y105411D01*
X268475Y105296D01*
X268445Y105182D01*
X268411Y105068D01*
X268374Y104956D01*
X268333Y104845D01*
X268288Y104736D01*
X268240Y104628D01*
X268188Y104522D01*
X268132Y104417D01*
X268073Y104315D01*
X268011Y104215D01*
X267945Y104117D01*
X267876Y104021D01*
X267803Y103927D01*
X267728Y103836D01*
X267649Y103748D01*
X267568Y103662D01*
X267483Y103579D01*
X267396Y103499D01*
X267307Y103422D01*
X267214Y103348D01*
X267120Y103278D01*
X267023Y103210D01*
X266923Y103146D01*
X266822Y103085D01*
X266719Y103028D01*
X266613Y102974D01*
X266506Y102923D01*
X266398Y102877D01*
X266288Y102834D01*
X266176Y102795D01*
X266063Y102759D01*
X265949Y102728D01*
X265834Y102700D01*
X265719Y102676D01*
X265602Y102656D01*
X265485Y102640D01*
X265367Y102628D01*
X265249Y102620D01*
X265131Y102616D01*
X265013Y102616D01*
X264895Y102620D01*
X264777Y102628D01*
X264659Y102640D01*
X264542Y102656D01*
X264425Y102676D01*
X264310Y102700D01*
X264195Y102728D01*
X264081Y102759D01*
X263968Y102795D01*
X263856Y102834D01*
X263746Y102877D01*
X263638Y102923D01*
X263531Y102974D01*
X263425Y103028D01*
X263322Y103085D01*
X263221Y103146D01*
X263121Y103210D01*
X263024Y103278D01*
X262930Y103348D01*
X262837Y103422D01*
X262748Y103499D01*
X262661Y103579D01*
X262576Y103662D01*
X262495Y103748D01*
X262416Y103836D01*
X262341Y103927D01*
X262268Y104021D01*
X262199Y104117D01*
X262133Y104215D01*
X262071Y104315D01*
X262012Y104417D01*
X261956Y104522D01*
X261904Y104628D01*
X261856Y104736D01*
X261811Y104845D01*
X261770Y104956D01*
X261733Y105068D01*
X261699Y105182D01*
X261669Y105296D01*
X261644Y105411D01*
X261622Y105528D01*
X261604Y105645D01*
X261590Y105762D01*
X261580Y105880D01*
X261574Y105998D01*
X261572Y106116D01*
X275640Y102616D02*
X275640Y113115D01*
X280015Y113115D01*
X280116Y113113D01*
X280216Y113107D01*
X280316Y113098D01*
X280416Y113084D01*
X280515Y113067D01*
X280613Y113046D01*
X280711Y113021D01*
X280807Y112993D01*
X280902Y112960D01*
X280996Y112925D01*
X281089Y112885D01*
X281180Y112842D01*
X281269Y112796D01*
X281356Y112746D01*
X281442Y112693D01*
X281525Y112637D01*
X281606Y112578D01*
X281685Y112515D01*
X281761Y112450D01*
X281835Y112381D01*
X281906Y112310D01*
X281975Y112236D01*
X282040Y112160D01*
X282103Y112081D01*
X282162Y112000D01*
X282218Y111917D01*
X282271Y111831D01*
X282321Y111744D01*
X282367Y111655D01*
X282410Y111564D01*
X282450Y111471D01*
X282485Y111377D01*
X282518Y111282D01*
X282546Y111186D01*
X282571Y111088D01*
X282592Y110990D01*
X282609Y110891D01*
X282623Y110791D01*
X282632Y110691D01*
X282638Y110591D01*
X282640Y110490D01*
X282640Y102616D01*
X290230Y102616D02*
X290230Y113115D01*
X294604Y113115D01*
X294705Y113113D01*
X294805Y113107D01*
X294905Y113098D01*
X295005Y113084D01*
X295104Y113067D01*
X295202Y113046D01*
X295300Y113021D01*
X295396Y112993D01*
X295491Y112960D01*
X295585Y112925D01*
X295678Y112885D01*
X295769Y112842D01*
X295858Y112796D01*
X295945Y112746D01*
X296031Y112693D01*
X296114Y112637D01*
X296195Y112578D01*
X296274Y112515D01*
X296350Y112450D01*
X296424Y112381D01*
X296495Y112310D01*
X296564Y112236D01*
X296629Y112160D01*
X296692Y112081D01*
X296751Y112000D01*
X296807Y111917D01*
X296860Y111831D01*
X296910Y111744D01*
X296956Y111655D01*
X296999Y111564D01*
X297039Y111471D01*
X297074Y111377D01*
X297107Y111282D01*
X297135Y111186D01*
X297160Y111088D01*
X297181Y110990D01*
X297198Y110891D01*
X297212Y110791D01*
X297221Y110691D01*
X297227Y110591D01*
X297229Y110490D01*
X297229Y102616D01*
X306922Y102616D02*
X311297Y102616D01*
X306922Y102616D02*
X306821Y102618D01*
X306721Y102624D01*
X306621Y102633D01*
X306521Y102647D01*
X306422Y102664D01*
X306324Y102685D01*
X306226Y102710D01*
X306130Y102738D01*
X306035Y102771D01*
X305941Y102806D01*
X305848Y102846D01*
X305757Y102889D01*
X305668Y102935D01*
X305581Y102985D01*
X305495Y103038D01*
X305412Y103094D01*
X305331Y103153D01*
X305252Y103216D01*
X305176Y103281D01*
X305102Y103350D01*
X305031Y103421D01*
X304962Y103495D01*
X304897Y103571D01*
X304834Y103650D01*
X304775Y103731D01*
X304719Y103814D01*
X304666Y103900D01*
X304616Y103987D01*
X304570Y104076D01*
X304527Y104167D01*
X304487Y104260D01*
X304452Y104354D01*
X304419Y104449D01*
X304391Y104545D01*
X304366Y104643D01*
X304345Y104741D01*
X304328Y104840D01*
X304314Y104940D01*
X304305Y105040D01*
X304299Y105140D01*
X304297Y105241D01*
X304298Y105241D02*
X304298Y109615D01*
X304297Y109615D02*
X304299Y109733D01*
X304305Y109851D01*
X304315Y109969D01*
X304329Y110086D01*
X304347Y110203D01*
X304369Y110320D01*
X304394Y110435D01*
X304424Y110549D01*
X304458Y110663D01*
X304495Y110775D01*
X304536Y110886D01*
X304581Y110995D01*
X304629Y111103D01*
X304681Y111209D01*
X304737Y111314D01*
X304796Y111416D01*
X304858Y111516D01*
X304924Y111614D01*
X304993Y111710D01*
X305066Y111804D01*
X305141Y111895D01*
X305220Y111983D01*
X305301Y112069D01*
X305386Y112152D01*
X305473Y112232D01*
X305562Y112309D01*
X305655Y112383D01*
X305749Y112453D01*
X305846Y112521D01*
X305946Y112585D01*
X306047Y112646D01*
X306150Y112703D01*
X306256Y112757D01*
X306363Y112808D01*
X306471Y112854D01*
X306581Y112897D01*
X306693Y112936D01*
X306806Y112972D01*
X306920Y113003D01*
X307035Y113031D01*
X307150Y113055D01*
X307267Y113075D01*
X307384Y113091D01*
X307502Y113103D01*
X307620Y113111D01*
X307738Y113115D01*
X307856Y113115D01*
X307974Y113111D01*
X308092Y113103D01*
X308210Y113091D01*
X308327Y113075D01*
X308444Y113055D01*
X308559Y113031D01*
X308674Y113003D01*
X308788Y112972D01*
X308901Y112936D01*
X309013Y112897D01*
X309123Y112854D01*
X309231Y112808D01*
X309338Y112757D01*
X309444Y112703D01*
X309547Y112646D01*
X309648Y112585D01*
X309748Y112521D01*
X309845Y112453D01*
X309939Y112383D01*
X310032Y112309D01*
X310121Y112232D01*
X310208Y112152D01*
X310293Y112069D01*
X310374Y111983D01*
X310453Y111895D01*
X310528Y111804D01*
X310601Y111710D01*
X310670Y111614D01*
X310736Y111516D01*
X310798Y111416D01*
X310857Y111314D01*
X310913Y111209D01*
X310965Y111103D01*
X311013Y110995D01*
X311058Y110886D01*
X311099Y110775D01*
X311136Y110663D01*
X311170Y110549D01*
X311200Y110435D01*
X311225Y110320D01*
X311247Y110203D01*
X311265Y110086D01*
X311279Y109969D01*
X311289Y109851D01*
X311295Y109733D01*
X311297Y109615D01*
X311297Y107865D01*
X304298Y107865D01*
X320491Y102616D02*
X323990Y102616D01*
X320491Y102616D02*
X320390Y102618D01*
X320290Y102624D01*
X320190Y102633D01*
X320090Y102647D01*
X319991Y102664D01*
X319893Y102685D01*
X319795Y102710D01*
X319699Y102738D01*
X319604Y102771D01*
X319510Y102806D01*
X319417Y102846D01*
X319326Y102889D01*
X319237Y102935D01*
X319150Y102985D01*
X319064Y103038D01*
X318981Y103094D01*
X318900Y103153D01*
X318821Y103216D01*
X318745Y103281D01*
X318671Y103350D01*
X318600Y103421D01*
X318531Y103495D01*
X318466Y103571D01*
X318403Y103650D01*
X318344Y103731D01*
X318288Y103814D01*
X318235Y103900D01*
X318185Y103987D01*
X318139Y104076D01*
X318096Y104167D01*
X318056Y104260D01*
X318021Y104354D01*
X317988Y104449D01*
X317960Y104545D01*
X317935Y104643D01*
X317914Y104741D01*
X317897Y104840D01*
X317883Y104940D01*
X317874Y105040D01*
X317868Y105140D01*
X317866Y105241D01*
X317866Y110490D01*
X317865Y110490D02*
X317867Y110591D01*
X317873Y110691D01*
X317882Y110791D01*
X317896Y110891D01*
X317913Y110990D01*
X317934Y111088D01*
X317959Y111186D01*
X317987Y111282D01*
X318020Y111377D01*
X318055Y111471D01*
X318095Y111564D01*
X318138Y111655D01*
X318184Y111744D01*
X318234Y111831D01*
X318287Y111917D01*
X318343Y112000D01*
X318402Y112081D01*
X318465Y112160D01*
X318530Y112236D01*
X318599Y112310D01*
X318670Y112381D01*
X318744Y112450D01*
X318820Y112515D01*
X318899Y112578D01*
X318980Y112637D01*
X319063Y112693D01*
X319149Y112746D01*
X319236Y112796D01*
X319325Y112842D01*
X319416Y112885D01*
X319509Y112925D01*
X319603Y112961D01*
X319698Y112993D01*
X319794Y113021D01*
X319892Y113046D01*
X319990Y113067D01*
X320089Y113084D01*
X320189Y113098D01*
X320289Y113107D01*
X320389Y113113D01*
X320490Y113115D01*
X320491Y113115D02*
X323990Y113115D01*
X328480Y113115D02*
X333729Y113115D01*
X330229Y118364D02*
X330229Y105241D01*
X330231Y105140D01*
X330237Y105040D01*
X330246Y104940D01*
X330260Y104840D01*
X330277Y104741D01*
X330298Y104643D01*
X330323Y104545D01*
X330351Y104449D01*
X330384Y104354D01*
X330419Y104260D01*
X330459Y104167D01*
X330502Y104076D01*
X330548Y103987D01*
X330598Y103900D01*
X330651Y103814D01*
X330707Y103731D01*
X330766Y103650D01*
X330829Y103571D01*
X330894Y103495D01*
X330963Y103421D01*
X331034Y103350D01*
X331108Y103281D01*
X331184Y103216D01*
X331263Y103153D01*
X331344Y103094D01*
X331427Y103038D01*
X331513Y102985D01*
X331600Y102935D01*
X331689Y102889D01*
X331780Y102846D01*
X331873Y102806D01*
X331967Y102771D01*
X332062Y102738D01*
X332158Y102710D01*
X332256Y102685D01*
X332354Y102664D01*
X332453Y102647D01*
X332553Y102633D01*
X332653Y102624D01*
X332753Y102618D01*
X332854Y102616D01*
X333729Y102616D01*
X348232Y106116D02*
X351732Y118364D01*
X348232Y106116D02*
X356981Y106116D01*
X354357Y109615D02*
X354357Y102616D01*
X248666Y92964D02*
X248666Y77216D01*
X248666Y92964D02*
X253040Y92964D01*
X253171Y92962D01*
X253302Y92956D01*
X253432Y92946D01*
X253562Y92933D01*
X253692Y92915D01*
X253821Y92894D01*
X253949Y92868D01*
X254077Y92839D01*
X254204Y92806D01*
X254329Y92770D01*
X254454Y92729D01*
X254577Y92685D01*
X254699Y92637D01*
X254819Y92586D01*
X254938Y92531D01*
X255055Y92472D01*
X255170Y92410D01*
X255283Y92345D01*
X255395Y92276D01*
X255504Y92204D01*
X255611Y92129D01*
X255716Y92050D01*
X255818Y91969D01*
X255918Y91884D01*
X256015Y91796D01*
X256110Y91706D01*
X256202Y91613D01*
X256291Y91517D01*
X256377Y91418D01*
X256460Y91317D01*
X256540Y91214D01*
X256617Y91108D01*
X256690Y91000D01*
X256761Y90889D01*
X256828Y90777D01*
X256892Y90663D01*
X256952Y90547D01*
X257009Y90429D01*
X257062Y90309D01*
X257112Y90188D01*
X257158Y90065D01*
X257200Y89942D01*
X257238Y89817D01*
X257273Y89690D01*
X257304Y89563D01*
X257332Y89435D01*
X257355Y89307D01*
X257374Y89177D01*
X257390Y89047D01*
X257402Y88917D01*
X257410Y88786D01*
X257414Y88655D01*
X257414Y88525D01*
X257410Y88394D01*
X257402Y88263D01*
X257390Y88133D01*
X257374Y88003D01*
X257355Y87873D01*
X257332Y87745D01*
X257304Y87617D01*
X257273Y87490D01*
X257238Y87363D01*
X257200Y87238D01*
X257158Y87115D01*
X257112Y86992D01*
X257062Y86871D01*
X257009Y86751D01*
X256952Y86633D01*
X256892Y86517D01*
X256828Y86403D01*
X256761Y86291D01*
X256690Y86180D01*
X256617Y86072D01*
X256540Y85966D01*
X256460Y85863D01*
X256377Y85762D01*
X256291Y85663D01*
X256202Y85567D01*
X256110Y85474D01*
X256015Y85384D01*
X255918Y85296D01*
X255818Y85211D01*
X255716Y85130D01*
X255611Y85051D01*
X255504Y84976D01*
X255395Y84904D01*
X255283Y84835D01*
X255170Y84770D01*
X255055Y84708D01*
X254938Y84649D01*
X254819Y84594D01*
X254699Y84543D01*
X254577Y84495D01*
X254454Y84451D01*
X254329Y84410D01*
X254204Y84374D01*
X254077Y84341D01*
X253949Y84312D01*
X253821Y84286D01*
X253692Y84265D01*
X253562Y84247D01*
X253432Y84234D01*
X253302Y84224D01*
X253171Y84218D01*
X253040Y84216D01*
X253040Y84215D02*
X248666Y84215D01*
X253915Y84215D02*
X257415Y77216D01*
X266645Y77216D02*
X271019Y77216D01*
X266645Y77216D02*
X266544Y77218D01*
X266444Y77224D01*
X266344Y77233D01*
X266244Y77247D01*
X266145Y77264D01*
X266047Y77285D01*
X265949Y77310D01*
X265853Y77338D01*
X265758Y77371D01*
X265664Y77406D01*
X265571Y77446D01*
X265480Y77489D01*
X265391Y77535D01*
X265304Y77585D01*
X265218Y77638D01*
X265135Y77694D01*
X265054Y77753D01*
X264975Y77816D01*
X264899Y77881D01*
X264825Y77950D01*
X264754Y78021D01*
X264685Y78095D01*
X264620Y78171D01*
X264557Y78250D01*
X264498Y78331D01*
X264442Y78414D01*
X264389Y78500D01*
X264339Y78587D01*
X264293Y78676D01*
X264250Y78767D01*
X264210Y78860D01*
X264175Y78954D01*
X264142Y79049D01*
X264114Y79145D01*
X264089Y79243D01*
X264068Y79341D01*
X264051Y79440D01*
X264037Y79540D01*
X264028Y79640D01*
X264022Y79740D01*
X264020Y79841D01*
X264020Y84215D01*
X264019Y84215D02*
X264021Y84333D01*
X264027Y84451D01*
X264037Y84569D01*
X264051Y84686D01*
X264069Y84803D01*
X264091Y84920D01*
X264116Y85035D01*
X264146Y85149D01*
X264180Y85263D01*
X264217Y85375D01*
X264258Y85486D01*
X264303Y85595D01*
X264351Y85703D01*
X264403Y85809D01*
X264459Y85914D01*
X264518Y86016D01*
X264580Y86116D01*
X264646Y86214D01*
X264715Y86310D01*
X264788Y86404D01*
X264863Y86495D01*
X264942Y86583D01*
X265023Y86669D01*
X265108Y86752D01*
X265195Y86832D01*
X265284Y86909D01*
X265377Y86983D01*
X265471Y87053D01*
X265568Y87121D01*
X265668Y87185D01*
X265769Y87246D01*
X265872Y87303D01*
X265978Y87357D01*
X266085Y87408D01*
X266193Y87454D01*
X266303Y87497D01*
X266415Y87536D01*
X266528Y87572D01*
X266642Y87603D01*
X266757Y87631D01*
X266872Y87655D01*
X266989Y87675D01*
X267106Y87691D01*
X267224Y87703D01*
X267342Y87711D01*
X267460Y87715D01*
X267578Y87715D01*
X267696Y87711D01*
X267814Y87703D01*
X267932Y87691D01*
X268049Y87675D01*
X268166Y87655D01*
X268281Y87631D01*
X268396Y87603D01*
X268510Y87572D01*
X268623Y87536D01*
X268735Y87497D01*
X268845Y87454D01*
X268953Y87408D01*
X269060Y87357D01*
X269166Y87303D01*
X269269Y87246D01*
X269370Y87185D01*
X269470Y87121D01*
X269567Y87053D01*
X269661Y86983D01*
X269754Y86909D01*
X269843Y86832D01*
X269930Y86752D01*
X270015Y86669D01*
X270096Y86583D01*
X270175Y86495D01*
X270250Y86404D01*
X270323Y86310D01*
X270392Y86214D01*
X270458Y86116D01*
X270520Y86016D01*
X270579Y85914D01*
X270635Y85809D01*
X270687Y85703D01*
X270735Y85595D01*
X270780Y85486D01*
X270821Y85375D01*
X270858Y85263D01*
X270892Y85149D01*
X270922Y85035D01*
X270947Y84920D01*
X270969Y84803D01*
X270987Y84686D01*
X271001Y84569D01*
X271011Y84451D01*
X271017Y84333D01*
X271019Y84215D01*
X271019Y82465D01*
X264020Y82465D01*
X277046Y87715D02*
X280545Y77216D01*
X284045Y87715D01*
X298576Y89464D02*
X302950Y92964D01*
X302950Y77216D01*
X298576Y77216D02*
X307325Y77216D01*
X313455Y77216D02*
X313455Y78091D01*
X314329Y78091D01*
X314329Y77216D01*
X313455Y77216D01*
X320459Y85090D02*
X320463Y85400D01*
X320474Y85709D01*
X320492Y86019D01*
X320518Y86327D01*
X320551Y86635D01*
X320592Y86943D01*
X320640Y87249D01*
X320695Y87554D01*
X320757Y87857D01*
X320827Y88159D01*
X320904Y88459D01*
X320988Y88757D01*
X321079Y89053D01*
X321177Y89347D01*
X321282Y89639D01*
X321394Y89928D01*
X321513Y90214D01*
X321639Y90497D01*
X321771Y90777D01*
X321772Y90777D02*
X321810Y90882D01*
X321852Y90985D01*
X321897Y91087D01*
X321945Y91188D01*
X321997Y91286D01*
X322053Y91383D01*
X322111Y91478D01*
X322173Y91571D01*
X322238Y91661D01*
X322307Y91749D01*
X322378Y91835D01*
X322452Y91919D01*
X322529Y91999D01*
X322608Y92078D01*
X322691Y92153D01*
X322776Y92225D01*
X322863Y92295D01*
X322953Y92361D01*
X323044Y92424D01*
X323138Y92484D01*
X323234Y92541D01*
X323332Y92595D01*
X323432Y92645D01*
X323533Y92691D01*
X323636Y92734D01*
X323741Y92774D01*
X323846Y92810D01*
X323953Y92842D01*
X324061Y92870D01*
X324170Y92895D01*
X324279Y92916D01*
X324389Y92933D01*
X324500Y92947D01*
X324611Y92956D01*
X324722Y92962D01*
X324834Y92964D01*
X324946Y92962D01*
X325057Y92956D01*
X325168Y92947D01*
X325279Y92933D01*
X325389Y92916D01*
X325499Y92895D01*
X325607Y92870D01*
X325715Y92842D01*
X325822Y92810D01*
X325927Y92774D01*
X326032Y92734D01*
X326135Y92691D01*
X326236Y92645D01*
X326336Y92595D01*
X326434Y92541D01*
X326530Y92484D01*
X326624Y92424D01*
X326715Y92361D01*
X326805Y92295D01*
X326892Y92225D01*
X326977Y92153D01*
X327060Y92078D01*
X327139Y91999D01*
X327216Y91919D01*
X327290Y91835D01*
X327361Y91749D01*
X327430Y91661D01*
X327495Y91571D01*
X327557Y91478D01*
X327615Y91383D01*
X327671Y91286D01*
X327723Y91188D01*
X327771Y91087D01*
X327816Y90985D01*
X327858Y90882D01*
X327896Y90777D01*
X328028Y90497D01*
X328154Y90213D01*
X328273Y89927D01*
X328385Y89638D01*
X328490Y89347D01*
X328588Y89053D01*
X328679Y88757D01*
X328763Y88459D01*
X328840Y88159D01*
X328910Y87857D01*
X328972Y87553D01*
X329027Y87249D01*
X329075Y86943D01*
X329116Y86635D01*
X329149Y86327D01*
X329175Y86019D01*
X329193Y85709D01*
X329204Y85400D01*
X329208Y85090D01*
X320459Y85090D02*
X320463Y84780D01*
X320474Y84471D01*
X320492Y84161D01*
X320518Y83853D01*
X320551Y83545D01*
X320592Y83237D01*
X320640Y82931D01*
X320695Y82626D01*
X320757Y82323D01*
X320827Y82021D01*
X320904Y81721D01*
X320988Y81423D01*
X321079Y81127D01*
X321177Y80833D01*
X321282Y80541D01*
X321394Y80252D01*
X321513Y79966D01*
X321639Y79683D01*
X321771Y79403D01*
X321772Y79403D02*
X321810Y79298D01*
X321852Y79195D01*
X321897Y79093D01*
X321945Y78992D01*
X321997Y78894D01*
X322053Y78797D01*
X322111Y78702D01*
X322173Y78609D01*
X322238Y78519D01*
X322307Y78431D01*
X322378Y78345D01*
X322452Y78261D01*
X322529Y78181D01*
X322608Y78102D01*
X322691Y78027D01*
X322776Y77955D01*
X322863Y77885D01*
X322953Y77819D01*
X323044Y77756D01*
X323138Y77696D01*
X323234Y77639D01*
X323332Y77585D01*
X323432Y77535D01*
X323533Y77489D01*
X323636Y77446D01*
X323741Y77406D01*
X323846Y77370D01*
X323953Y77338D01*
X324061Y77310D01*
X324170Y77285D01*
X324279Y77264D01*
X324389Y77247D01*
X324500Y77233D01*
X324611Y77224D01*
X324722Y77218D01*
X324834Y77216D01*
X327897Y79403D02*
X328029Y79683D01*
X328155Y79966D01*
X328274Y80252D01*
X328386Y80541D01*
X328491Y80833D01*
X328589Y81127D01*
X328680Y81423D01*
X328764Y81721D01*
X328841Y82021D01*
X328911Y82323D01*
X328973Y82626D01*
X329028Y82931D01*
X329076Y83237D01*
X329117Y83545D01*
X329150Y83853D01*
X329176Y84161D01*
X329194Y84471D01*
X329205Y84780D01*
X329209Y85090D01*
X327896Y79403D02*
X327858Y79298D01*
X327816Y79195D01*
X327771Y79093D01*
X327723Y78992D01*
X327671Y78894D01*
X327615Y78797D01*
X327557Y78702D01*
X327495Y78609D01*
X327430Y78519D01*
X327361Y78431D01*
X327290Y78345D01*
X327216Y78261D01*
X327139Y78181D01*
X327060Y78102D01*
X326977Y78027D01*
X326892Y77955D01*
X326805Y77885D01*
X326715Y77819D01*
X326624Y77756D01*
X326530Y77696D01*
X326434Y77639D01*
X326336Y77585D01*
X326236Y77535D01*
X326135Y77489D01*
X326032Y77446D01*
X325927Y77406D01*
X325822Y77370D01*
X325715Y77338D01*
X325607Y77310D01*
X325498Y77285D01*
X325389Y77264D01*
X325279Y77247D01*
X325168Y77233D01*
X325057Y77224D01*
X324946Y77218D01*
X324834Y77216D01*
X321334Y80716D02*
X328333Y89464D01*
X461716Y92964D02*
X461716Y77216D01*
X461716Y85090D02*
X459528Y86402D01*
X459529Y86402D02*
X459444Y86456D01*
X459361Y86512D01*
X459280Y86572D01*
X459201Y86635D01*
X459126Y86700D01*
X459052Y86769D01*
X458982Y86840D01*
X458914Y86914D01*
X458849Y86991D01*
X458787Y87070D01*
X458728Y87151D01*
X458672Y87234D01*
X458620Y87320D01*
X458571Y87408D01*
X458525Y87497D01*
X458482Y87588D01*
X458444Y87680D01*
X458409Y87775D01*
X458377Y87870D01*
X458349Y87966D01*
X458325Y88064D01*
X458305Y88162D01*
X458288Y88261D01*
X458275Y88361D01*
X458266Y88461D01*
X458261Y88561D01*
X458260Y88661D01*
X458263Y88762D01*
X458269Y88862D01*
X458279Y88962D01*
X458294Y89061D01*
X458312Y89160D01*
X458333Y89258D01*
X458359Y89355D01*
X458388Y89451D01*
X458421Y89546D01*
X458457Y89639D01*
X458497Y89731D01*
X458541Y89822D01*
X458588Y89910D01*
X458638Y89997D01*
X458692Y90082D01*
X458749Y90165D01*
X458809Y90245D01*
X458872Y90323D01*
X458938Y90399D01*
X459007Y90472D01*
X459079Y90542D01*
X459153Y90610D01*
X459230Y90675D01*
X459309Y90736D01*
X459390Y90795D01*
X459474Y90850D01*
X459560Y90902D01*
X459648Y90951D01*
X459737Y90996D01*
X459829Y91038D01*
X459921Y91077D01*
X460015Y91111D01*
X460111Y91142D01*
X460207Y91170D01*
X460305Y91194D01*
X460403Y91213D01*
X460403Y91214D02*
X460568Y91242D01*
X460732Y91266D01*
X460898Y91286D01*
X461064Y91302D01*
X461230Y91314D01*
X461396Y91322D01*
X461563Y91326D01*
X461729Y91327D01*
X461896Y91323D01*
X462062Y91315D01*
X462228Y91303D01*
X462394Y91287D01*
X462560Y91267D01*
X462725Y91243D01*
X462889Y91215D01*
X463052Y91183D01*
X463215Y91148D01*
X463377Y91108D01*
X463538Y91065D01*
X463698Y91017D01*
X463856Y90966D01*
X464013Y90911D01*
X464169Y90853D01*
X464324Y90790D01*
X464477Y90724D01*
X464628Y90654D01*
X464777Y90581D01*
X464925Y90504D01*
X465071Y90423D01*
X465215Y90339D01*
X461716Y85090D02*
X463903Y83778D01*
X463902Y83778D02*
X463987Y83724D01*
X464070Y83668D01*
X464151Y83608D01*
X464230Y83545D01*
X464305Y83480D01*
X464379Y83411D01*
X464449Y83340D01*
X464517Y83266D01*
X464582Y83189D01*
X464644Y83110D01*
X464703Y83029D01*
X464759Y82946D01*
X464811Y82860D01*
X464860Y82773D01*
X464906Y82683D01*
X464949Y82592D01*
X464987Y82500D01*
X465022Y82405D01*
X465054Y82310D01*
X465082Y82214D01*
X465106Y82116D01*
X465126Y82018D01*
X465143Y81919D01*
X465156Y81819D01*
X465165Y81719D01*
X465170Y81619D01*
X465171Y81519D01*
X465168Y81418D01*
X465162Y81318D01*
X465152Y81218D01*
X465137Y81119D01*
X465119Y81020D01*
X465098Y80922D01*
X465072Y80825D01*
X465043Y80729D01*
X465010Y80634D01*
X464974Y80541D01*
X464934Y80449D01*
X464890Y80358D01*
X464843Y80270D01*
X464793Y80183D01*
X464739Y80098D01*
X464682Y80015D01*
X464622Y79935D01*
X464559Y79857D01*
X464493Y79781D01*
X464424Y79708D01*
X464353Y79638D01*
X464278Y79570D01*
X464201Y79506D01*
X464122Y79444D01*
X464041Y79385D01*
X463957Y79330D01*
X463871Y79278D01*
X463783Y79229D01*
X463694Y79184D01*
X463603Y79142D01*
X463510Y79104D01*
X463416Y79069D01*
X463320Y79038D01*
X463224Y79010D01*
X463126Y78986D01*
X463028Y78967D01*
X463028Y78966D02*
X462864Y78938D01*
X462699Y78914D01*
X462533Y78894D01*
X462367Y78878D01*
X462201Y78866D01*
X462035Y78858D01*
X461868Y78854D01*
X461702Y78853D01*
X461535Y78857D01*
X461369Y78865D01*
X461203Y78877D01*
X461037Y78893D01*
X460871Y78913D01*
X460706Y78937D01*
X460542Y78965D01*
X460379Y78997D01*
X460216Y79032D01*
X460054Y79072D01*
X459893Y79115D01*
X459733Y79163D01*
X459575Y79214D01*
X459418Y79269D01*
X459262Y79327D01*
X459107Y79390D01*
X458954Y79456D01*
X458803Y79526D01*
X458653Y79599D01*
X458506Y79676D01*
X458360Y79757D01*
X458216Y79841D01*
X472618Y77216D02*
X472618Y92964D01*
X477868Y84215D01*
X483117Y92964D01*
X483117Y77216D01*
X494020Y77216D02*
X494020Y92964D01*
X491833Y86402D02*
X494020Y85090D01*
X491833Y86402D02*
X491748Y86456D01*
X491665Y86512D01*
X491584Y86572D01*
X491505Y86635D01*
X491430Y86700D01*
X491356Y86769D01*
X491286Y86840D01*
X491218Y86914D01*
X491153Y86991D01*
X491091Y87070D01*
X491032Y87151D01*
X490976Y87234D01*
X490924Y87320D01*
X490875Y87408D01*
X490829Y87497D01*
X490786Y87588D01*
X490748Y87680D01*
X490713Y87775D01*
X490681Y87870D01*
X490653Y87966D01*
X490629Y88064D01*
X490609Y88162D01*
X490592Y88261D01*
X490579Y88361D01*
X490570Y88461D01*
X490565Y88561D01*
X490564Y88661D01*
X490567Y88762D01*
X490573Y88862D01*
X490583Y88962D01*
X490598Y89061D01*
X490616Y89160D01*
X490637Y89258D01*
X490663Y89355D01*
X490692Y89451D01*
X490725Y89546D01*
X490761Y89639D01*
X490801Y89731D01*
X490845Y89822D01*
X490892Y89910D01*
X490942Y89997D01*
X490996Y90082D01*
X491053Y90165D01*
X491113Y90245D01*
X491176Y90323D01*
X491242Y90399D01*
X491311Y90472D01*
X491383Y90542D01*
X491457Y90610D01*
X491534Y90675D01*
X491613Y90736D01*
X491694Y90795D01*
X491778Y90850D01*
X491864Y90902D01*
X491952Y90951D01*
X492041Y90996D01*
X492133Y91038D01*
X492225Y91077D01*
X492319Y91111D01*
X492415Y91142D01*
X492511Y91170D01*
X492609Y91194D01*
X492707Y91213D01*
X492707Y91214D02*
X492872Y91242D01*
X493036Y91266D01*
X493202Y91286D01*
X493368Y91302D01*
X493534Y91314D01*
X493700Y91322D01*
X493867Y91326D01*
X494033Y91327D01*
X494200Y91323D01*
X494366Y91315D01*
X494532Y91303D01*
X494698Y91287D01*
X494864Y91267D01*
X495029Y91243D01*
X495193Y91215D01*
X495356Y91183D01*
X495519Y91148D01*
X495681Y91108D01*
X495842Y91065D01*
X496002Y91017D01*
X496160Y90966D01*
X496317Y90911D01*
X496473Y90853D01*
X496628Y90790D01*
X496781Y90724D01*
X496932Y90654D01*
X497081Y90581D01*
X497229Y90504D01*
X497375Y90423D01*
X497519Y90339D01*
X494020Y85090D02*
X496207Y83778D01*
X496292Y83724D01*
X496375Y83668D01*
X496456Y83608D01*
X496535Y83545D01*
X496610Y83480D01*
X496684Y83411D01*
X496754Y83340D01*
X496822Y83266D01*
X496887Y83189D01*
X496949Y83110D01*
X497008Y83029D01*
X497064Y82946D01*
X497116Y82860D01*
X497165Y82773D01*
X497211Y82683D01*
X497254Y82592D01*
X497292Y82500D01*
X497327Y82405D01*
X497359Y82310D01*
X497387Y82214D01*
X497411Y82116D01*
X497431Y82018D01*
X497448Y81919D01*
X497461Y81819D01*
X497470Y81719D01*
X497475Y81619D01*
X497476Y81519D01*
X497473Y81418D01*
X497467Y81318D01*
X497457Y81218D01*
X497442Y81119D01*
X497424Y81020D01*
X497403Y80922D01*
X497377Y80825D01*
X497348Y80729D01*
X497315Y80634D01*
X497279Y80541D01*
X497239Y80449D01*
X497195Y80358D01*
X497148Y80270D01*
X497098Y80183D01*
X497044Y80098D01*
X496987Y80015D01*
X496927Y79935D01*
X496864Y79857D01*
X496798Y79781D01*
X496729Y79708D01*
X496658Y79638D01*
X496583Y79570D01*
X496506Y79506D01*
X496427Y79444D01*
X496346Y79385D01*
X496262Y79330D01*
X496176Y79278D01*
X496088Y79229D01*
X495999Y79184D01*
X495908Y79142D01*
X495815Y79104D01*
X495721Y79069D01*
X495625Y79038D01*
X495529Y79010D01*
X495431Y78986D01*
X495333Y78967D01*
X495333Y78966D02*
X495169Y78938D01*
X495004Y78914D01*
X494838Y78894D01*
X494672Y78878D01*
X494506Y78866D01*
X494340Y78858D01*
X494173Y78854D01*
X494007Y78853D01*
X493840Y78857D01*
X493674Y78865D01*
X493508Y78877D01*
X493342Y78893D01*
X493176Y78913D01*
X493011Y78937D01*
X492847Y78965D01*
X492684Y78997D01*
X492521Y79032D01*
X492359Y79072D01*
X492198Y79115D01*
X492038Y79163D01*
X491880Y79214D01*
X491723Y79269D01*
X491567Y79327D01*
X491412Y79390D01*
X491259Y79456D01*
X491108Y79526D01*
X490958Y79599D01*
X490811Y79676D01*
X490665Y79757D01*
X490521Y79841D01*
D11*
X381000Y69850D02*
X381000Y114300D01*
X381000Y69850D02*
X425450Y69850D01*
X425450Y114300D01*
X381000Y114300D01*
X381000Y69850D02*
X381000Y57150D01*
X425450Y57150D02*
X425450Y69850D01*
X387350Y101600D02*
X387352Y101759D01*
X387358Y101918D01*
X387368Y102076D01*
X387382Y102235D01*
X387400Y102393D01*
X387421Y102550D01*
X387447Y102707D01*
X387477Y102863D01*
X387510Y103019D01*
X387548Y103173D01*
X387589Y103327D01*
X387634Y103479D01*
X387683Y103630D01*
X387736Y103780D01*
X387792Y103929D01*
X387853Y104076D01*
X387916Y104221D01*
X387984Y104365D01*
X388055Y104508D01*
X388129Y104648D01*
X388207Y104786D01*
X388289Y104923D01*
X388374Y105057D01*
X388462Y105190D01*
X388553Y105320D01*
X388648Y105447D01*
X388746Y105572D01*
X388847Y105695D01*
X388951Y105815D01*
X389058Y105933D01*
X389168Y106048D01*
X389281Y106160D01*
X389396Y106269D01*
X389514Y106375D01*
X389635Y106479D01*
X389759Y106579D01*
X389884Y106676D01*
X390013Y106770D01*
X390143Y106860D01*
X390276Y106948D01*
X390411Y107032D01*
X390548Y107112D01*
X390687Y107190D01*
X390828Y107263D01*
X390970Y107333D01*
X391115Y107400D01*
X391261Y107463D01*
X391408Y107522D01*
X391557Y107578D01*
X391708Y107629D01*
X391859Y107677D01*
X392012Y107721D01*
X392166Y107762D01*
X392320Y107798D01*
X392476Y107831D01*
X392632Y107860D01*
X392789Y107884D01*
X392947Y107905D01*
X393105Y107922D01*
X393263Y107935D01*
X393422Y107944D01*
X393581Y107949D01*
X393740Y107950D01*
X393899Y107947D01*
X394057Y107940D01*
X394216Y107929D01*
X394374Y107914D01*
X394532Y107895D01*
X394689Y107872D01*
X394846Y107846D01*
X395002Y107815D01*
X395157Y107781D01*
X395311Y107742D01*
X395465Y107700D01*
X395617Y107654D01*
X395768Y107604D01*
X395917Y107550D01*
X396066Y107493D01*
X396212Y107432D01*
X396358Y107367D01*
X396501Y107299D01*
X396643Y107227D01*
X396783Y107151D01*
X396921Y107073D01*
X397057Y106990D01*
X397191Y106905D01*
X397322Y106816D01*
X397452Y106723D01*
X397579Y106628D01*
X397703Y106529D01*
X397826Y106427D01*
X397945Y106323D01*
X398062Y106215D01*
X398176Y106104D01*
X398287Y105991D01*
X398396Y105875D01*
X398501Y105756D01*
X398604Y105634D01*
X398703Y105510D01*
X398800Y105384D01*
X398893Y105255D01*
X398983Y105124D01*
X399069Y104990D01*
X399152Y104855D01*
X399232Y104717D01*
X399308Y104578D01*
X399381Y104437D01*
X399450Y104294D01*
X399516Y104149D01*
X399578Y104002D01*
X399636Y103855D01*
X399691Y103705D01*
X399742Y103555D01*
X399789Y103403D01*
X399832Y103250D01*
X399871Y103096D01*
X399907Y102941D01*
X399938Y102785D01*
X399966Y102629D01*
X399990Y102472D01*
X400010Y102314D01*
X400026Y102156D01*
X400038Y101997D01*
X400046Y101838D01*
X400050Y101679D01*
X400050Y101521D01*
X400046Y101362D01*
X400038Y101203D01*
X400026Y101044D01*
X400010Y100886D01*
X399990Y100728D01*
X399966Y100571D01*
X399938Y100415D01*
X399907Y100259D01*
X399871Y100104D01*
X399832Y99950D01*
X399789Y99797D01*
X399742Y99645D01*
X399691Y99495D01*
X399636Y99345D01*
X399578Y99198D01*
X399516Y99051D01*
X399450Y98906D01*
X399381Y98763D01*
X399308Y98622D01*
X399232Y98483D01*
X399152Y98345D01*
X399069Y98210D01*
X398983Y98076D01*
X398893Y97945D01*
X398800Y97816D01*
X398703Y97690D01*
X398604Y97566D01*
X398501Y97444D01*
X398396Y97325D01*
X398287Y97209D01*
X398176Y97096D01*
X398062Y96985D01*
X397945Y96877D01*
X397826Y96773D01*
X397703Y96671D01*
X397579Y96572D01*
X397452Y96477D01*
X397322Y96384D01*
X397191Y96295D01*
X397057Y96210D01*
X396921Y96127D01*
X396783Y96049D01*
X396643Y95973D01*
X396501Y95901D01*
X396358Y95833D01*
X396212Y95768D01*
X396066Y95707D01*
X395917Y95650D01*
X395768Y95596D01*
X395617Y95546D01*
X395465Y95500D01*
X395311Y95458D01*
X395157Y95419D01*
X395002Y95385D01*
X394846Y95354D01*
X394689Y95328D01*
X394532Y95305D01*
X394374Y95286D01*
X394216Y95271D01*
X394057Y95260D01*
X393899Y95253D01*
X393740Y95250D01*
X393581Y95251D01*
X393422Y95256D01*
X393263Y95265D01*
X393105Y95278D01*
X392947Y95295D01*
X392789Y95316D01*
X392632Y95340D01*
X392476Y95369D01*
X392320Y95402D01*
X392166Y95438D01*
X392012Y95479D01*
X391859Y95523D01*
X391708Y95571D01*
X391557Y95622D01*
X391408Y95678D01*
X391261Y95737D01*
X391115Y95800D01*
X390970Y95867D01*
X390828Y95937D01*
X390687Y96010D01*
X390548Y96088D01*
X390411Y96168D01*
X390276Y96252D01*
X390143Y96340D01*
X390013Y96430D01*
X389884Y96524D01*
X389759Y96621D01*
X389635Y96721D01*
X389514Y96825D01*
X389396Y96931D01*
X389281Y97040D01*
X389168Y97152D01*
X389058Y97267D01*
X388951Y97385D01*
X388847Y97505D01*
X388746Y97628D01*
X388648Y97753D01*
X388553Y97880D01*
X388462Y98010D01*
X388374Y98143D01*
X388289Y98277D01*
X388207Y98414D01*
X388129Y98552D01*
X388055Y98692D01*
X387984Y98835D01*
X387916Y98979D01*
X387853Y99124D01*
X387792Y99271D01*
X387736Y99420D01*
X387683Y99570D01*
X387634Y99721D01*
X387589Y99873D01*
X387548Y100027D01*
X387510Y100181D01*
X387477Y100337D01*
X387447Y100493D01*
X387421Y100650D01*
X387400Y100807D01*
X387382Y100965D01*
X387368Y101124D01*
X387358Y101282D01*
X387352Y101441D01*
X387350Y101600D01*
X406400Y101600D02*
X406402Y101759D01*
X406408Y101918D01*
X406418Y102076D01*
X406432Y102235D01*
X406450Y102393D01*
X406471Y102550D01*
X406497Y102707D01*
X406527Y102863D01*
X406560Y103019D01*
X406598Y103173D01*
X406639Y103327D01*
X406684Y103479D01*
X406733Y103630D01*
X406786Y103780D01*
X406842Y103929D01*
X406903Y104076D01*
X406966Y104221D01*
X407034Y104365D01*
X407105Y104508D01*
X407179Y104648D01*
X407257Y104786D01*
X407339Y104923D01*
X407424Y105057D01*
X407512Y105190D01*
X407603Y105320D01*
X407698Y105447D01*
X407796Y105572D01*
X407897Y105695D01*
X408001Y105815D01*
X408108Y105933D01*
X408218Y106048D01*
X408331Y106160D01*
X408446Y106269D01*
X408564Y106375D01*
X408685Y106479D01*
X408809Y106579D01*
X408934Y106676D01*
X409063Y106770D01*
X409193Y106860D01*
X409326Y106948D01*
X409461Y107032D01*
X409598Y107112D01*
X409737Y107190D01*
X409878Y107263D01*
X410020Y107333D01*
X410165Y107400D01*
X410311Y107463D01*
X410458Y107522D01*
X410607Y107578D01*
X410758Y107629D01*
X410909Y107677D01*
X411062Y107721D01*
X411216Y107762D01*
X411370Y107798D01*
X411526Y107831D01*
X411682Y107860D01*
X411839Y107884D01*
X411997Y107905D01*
X412155Y107922D01*
X412313Y107935D01*
X412472Y107944D01*
X412631Y107949D01*
X412790Y107950D01*
X412949Y107947D01*
X413107Y107940D01*
X413266Y107929D01*
X413424Y107914D01*
X413582Y107895D01*
X413739Y107872D01*
X413896Y107846D01*
X414052Y107815D01*
X414207Y107781D01*
X414361Y107742D01*
X414515Y107700D01*
X414667Y107654D01*
X414818Y107604D01*
X414967Y107550D01*
X415116Y107493D01*
X415262Y107432D01*
X415408Y107367D01*
X415551Y107299D01*
X415693Y107227D01*
X415833Y107151D01*
X415971Y107073D01*
X416107Y106990D01*
X416241Y106905D01*
X416372Y106816D01*
X416502Y106723D01*
X416629Y106628D01*
X416753Y106529D01*
X416876Y106427D01*
X416995Y106323D01*
X417112Y106215D01*
X417226Y106104D01*
X417337Y105991D01*
X417446Y105875D01*
X417551Y105756D01*
X417654Y105634D01*
X417753Y105510D01*
X417850Y105384D01*
X417943Y105255D01*
X418033Y105124D01*
X418119Y104990D01*
X418202Y104855D01*
X418282Y104717D01*
X418358Y104578D01*
X418431Y104437D01*
X418500Y104294D01*
X418566Y104149D01*
X418628Y104002D01*
X418686Y103855D01*
X418741Y103705D01*
X418792Y103555D01*
X418839Y103403D01*
X418882Y103250D01*
X418921Y103096D01*
X418957Y102941D01*
X418988Y102785D01*
X419016Y102629D01*
X419040Y102472D01*
X419060Y102314D01*
X419076Y102156D01*
X419088Y101997D01*
X419096Y101838D01*
X419100Y101679D01*
X419100Y101521D01*
X419096Y101362D01*
X419088Y101203D01*
X419076Y101044D01*
X419060Y100886D01*
X419040Y100728D01*
X419016Y100571D01*
X418988Y100415D01*
X418957Y100259D01*
X418921Y100104D01*
X418882Y99950D01*
X418839Y99797D01*
X418792Y99645D01*
X418741Y99495D01*
X418686Y99345D01*
X418628Y99198D01*
X418566Y99051D01*
X418500Y98906D01*
X418431Y98763D01*
X418358Y98622D01*
X418282Y98483D01*
X418202Y98345D01*
X418119Y98210D01*
X418033Y98076D01*
X417943Y97945D01*
X417850Y97816D01*
X417753Y97690D01*
X417654Y97566D01*
X417551Y97444D01*
X417446Y97325D01*
X417337Y97209D01*
X417226Y97096D01*
X417112Y96985D01*
X416995Y96877D01*
X416876Y96773D01*
X416753Y96671D01*
X416629Y96572D01*
X416502Y96477D01*
X416372Y96384D01*
X416241Y96295D01*
X416107Y96210D01*
X415971Y96127D01*
X415833Y96049D01*
X415693Y95973D01*
X415551Y95901D01*
X415408Y95833D01*
X415262Y95768D01*
X415116Y95707D01*
X414967Y95650D01*
X414818Y95596D01*
X414667Y95546D01*
X414515Y95500D01*
X414361Y95458D01*
X414207Y95419D01*
X414052Y95385D01*
X413896Y95354D01*
X413739Y95328D01*
X413582Y95305D01*
X413424Y95286D01*
X413266Y95271D01*
X413107Y95260D01*
X412949Y95253D01*
X412790Y95250D01*
X412631Y95251D01*
X412472Y95256D01*
X412313Y95265D01*
X412155Y95278D01*
X411997Y95295D01*
X411839Y95316D01*
X411682Y95340D01*
X411526Y95369D01*
X411370Y95402D01*
X411216Y95438D01*
X411062Y95479D01*
X410909Y95523D01*
X410758Y95571D01*
X410607Y95622D01*
X410458Y95678D01*
X410311Y95737D01*
X410165Y95800D01*
X410020Y95867D01*
X409878Y95937D01*
X409737Y96010D01*
X409598Y96088D01*
X409461Y96168D01*
X409326Y96252D01*
X409193Y96340D01*
X409063Y96430D01*
X408934Y96524D01*
X408809Y96621D01*
X408685Y96721D01*
X408564Y96825D01*
X408446Y96931D01*
X408331Y97040D01*
X408218Y97152D01*
X408108Y97267D01*
X408001Y97385D01*
X407897Y97505D01*
X407796Y97628D01*
X407698Y97753D01*
X407603Y97880D01*
X407512Y98010D01*
X407424Y98143D01*
X407339Y98277D01*
X407257Y98414D01*
X407179Y98552D01*
X407105Y98692D01*
X407034Y98835D01*
X406966Y98979D01*
X406903Y99124D01*
X406842Y99271D01*
X406786Y99420D01*
X406733Y99570D01*
X406684Y99721D01*
X406639Y99873D01*
X406598Y100027D01*
X406560Y100181D01*
X406527Y100337D01*
X406497Y100493D01*
X406471Y100650D01*
X406450Y100807D01*
X406432Y100965D01*
X406418Y101124D01*
X406408Y101282D01*
X406402Y101441D01*
X406400Y101600D01*
X387350Y82550D02*
X387352Y82709D01*
X387358Y82868D01*
X387368Y83026D01*
X387382Y83185D01*
X387400Y83343D01*
X387421Y83500D01*
X387447Y83657D01*
X387477Y83813D01*
X387510Y83969D01*
X387548Y84123D01*
X387589Y84277D01*
X387634Y84429D01*
X387683Y84580D01*
X387736Y84730D01*
X387792Y84879D01*
X387853Y85026D01*
X387916Y85171D01*
X387984Y85315D01*
X388055Y85458D01*
X388129Y85598D01*
X388207Y85736D01*
X388289Y85873D01*
X388374Y86007D01*
X388462Y86140D01*
X388553Y86270D01*
X388648Y86397D01*
X388746Y86522D01*
X388847Y86645D01*
X388951Y86765D01*
X389058Y86883D01*
X389168Y86998D01*
X389281Y87110D01*
X389396Y87219D01*
X389514Y87325D01*
X389635Y87429D01*
X389759Y87529D01*
X389884Y87626D01*
X390013Y87720D01*
X390143Y87810D01*
X390276Y87898D01*
X390411Y87982D01*
X390548Y88062D01*
X390687Y88140D01*
X390828Y88213D01*
X390970Y88283D01*
X391115Y88350D01*
X391261Y88413D01*
X391408Y88472D01*
X391557Y88528D01*
X391708Y88579D01*
X391859Y88627D01*
X392012Y88671D01*
X392166Y88712D01*
X392320Y88748D01*
X392476Y88781D01*
X392632Y88810D01*
X392789Y88834D01*
X392947Y88855D01*
X393105Y88872D01*
X393263Y88885D01*
X393422Y88894D01*
X393581Y88899D01*
X393740Y88900D01*
X393899Y88897D01*
X394057Y88890D01*
X394216Y88879D01*
X394374Y88864D01*
X394532Y88845D01*
X394689Y88822D01*
X394846Y88796D01*
X395002Y88765D01*
X395157Y88731D01*
X395311Y88692D01*
X395465Y88650D01*
X395617Y88604D01*
X395768Y88554D01*
X395917Y88500D01*
X396066Y88443D01*
X396212Y88382D01*
X396358Y88317D01*
X396501Y88249D01*
X396643Y88177D01*
X396783Y88101D01*
X396921Y88023D01*
X397057Y87940D01*
X397191Y87855D01*
X397322Y87766D01*
X397452Y87673D01*
X397579Y87578D01*
X397703Y87479D01*
X397826Y87377D01*
X397945Y87273D01*
X398062Y87165D01*
X398176Y87054D01*
X398287Y86941D01*
X398396Y86825D01*
X398501Y86706D01*
X398604Y86584D01*
X398703Y86460D01*
X398800Y86334D01*
X398893Y86205D01*
X398983Y86074D01*
X399069Y85940D01*
X399152Y85805D01*
X399232Y85667D01*
X399308Y85528D01*
X399381Y85387D01*
X399450Y85244D01*
X399516Y85099D01*
X399578Y84952D01*
X399636Y84805D01*
X399691Y84655D01*
X399742Y84505D01*
X399789Y84353D01*
X399832Y84200D01*
X399871Y84046D01*
X399907Y83891D01*
X399938Y83735D01*
X399966Y83579D01*
X399990Y83422D01*
X400010Y83264D01*
X400026Y83106D01*
X400038Y82947D01*
X400046Y82788D01*
X400050Y82629D01*
X400050Y82471D01*
X400046Y82312D01*
X400038Y82153D01*
X400026Y81994D01*
X400010Y81836D01*
X399990Y81678D01*
X399966Y81521D01*
X399938Y81365D01*
X399907Y81209D01*
X399871Y81054D01*
X399832Y80900D01*
X399789Y80747D01*
X399742Y80595D01*
X399691Y80445D01*
X399636Y80295D01*
X399578Y80148D01*
X399516Y80001D01*
X399450Y79856D01*
X399381Y79713D01*
X399308Y79572D01*
X399232Y79433D01*
X399152Y79295D01*
X399069Y79160D01*
X398983Y79026D01*
X398893Y78895D01*
X398800Y78766D01*
X398703Y78640D01*
X398604Y78516D01*
X398501Y78394D01*
X398396Y78275D01*
X398287Y78159D01*
X398176Y78046D01*
X398062Y77935D01*
X397945Y77827D01*
X397826Y77723D01*
X397703Y77621D01*
X397579Y77522D01*
X397452Y77427D01*
X397322Y77334D01*
X397191Y77245D01*
X397057Y77160D01*
X396921Y77077D01*
X396783Y76999D01*
X396643Y76923D01*
X396501Y76851D01*
X396358Y76783D01*
X396212Y76718D01*
X396066Y76657D01*
X395917Y76600D01*
X395768Y76546D01*
X395617Y76496D01*
X395465Y76450D01*
X395311Y76408D01*
X395157Y76369D01*
X395002Y76335D01*
X394846Y76304D01*
X394689Y76278D01*
X394532Y76255D01*
X394374Y76236D01*
X394216Y76221D01*
X394057Y76210D01*
X393899Y76203D01*
X393740Y76200D01*
X393581Y76201D01*
X393422Y76206D01*
X393263Y76215D01*
X393105Y76228D01*
X392947Y76245D01*
X392789Y76266D01*
X392632Y76290D01*
X392476Y76319D01*
X392320Y76352D01*
X392166Y76388D01*
X392012Y76429D01*
X391859Y76473D01*
X391708Y76521D01*
X391557Y76572D01*
X391408Y76628D01*
X391261Y76687D01*
X391115Y76750D01*
X390970Y76817D01*
X390828Y76887D01*
X390687Y76960D01*
X390548Y77038D01*
X390411Y77118D01*
X390276Y77202D01*
X390143Y77290D01*
X390013Y77380D01*
X389884Y77474D01*
X389759Y77571D01*
X389635Y77671D01*
X389514Y77775D01*
X389396Y77881D01*
X389281Y77990D01*
X389168Y78102D01*
X389058Y78217D01*
X388951Y78335D01*
X388847Y78455D01*
X388746Y78578D01*
X388648Y78703D01*
X388553Y78830D01*
X388462Y78960D01*
X388374Y79093D01*
X388289Y79227D01*
X388207Y79364D01*
X388129Y79502D01*
X388055Y79642D01*
X387984Y79785D01*
X387916Y79929D01*
X387853Y80074D01*
X387792Y80221D01*
X387736Y80370D01*
X387683Y80520D01*
X387634Y80671D01*
X387589Y80823D01*
X387548Y80977D01*
X387510Y81131D01*
X387477Y81287D01*
X387447Y81443D01*
X387421Y81600D01*
X387400Y81757D01*
X387382Y81915D01*
X387368Y82074D01*
X387358Y82232D01*
X387352Y82391D01*
X387350Y82550D01*
X406400Y82550D02*
X406402Y82709D01*
X406408Y82868D01*
X406418Y83026D01*
X406432Y83185D01*
X406450Y83343D01*
X406471Y83500D01*
X406497Y83657D01*
X406527Y83813D01*
X406560Y83969D01*
X406598Y84123D01*
X406639Y84277D01*
X406684Y84429D01*
X406733Y84580D01*
X406786Y84730D01*
X406842Y84879D01*
X406903Y85026D01*
X406966Y85171D01*
X407034Y85315D01*
X407105Y85458D01*
X407179Y85598D01*
X407257Y85736D01*
X407339Y85873D01*
X407424Y86007D01*
X407512Y86140D01*
X407603Y86270D01*
X407698Y86397D01*
X407796Y86522D01*
X407897Y86645D01*
X408001Y86765D01*
X408108Y86883D01*
X408218Y86998D01*
X408331Y87110D01*
X408446Y87219D01*
X408564Y87325D01*
X408685Y87429D01*
X408809Y87529D01*
X408934Y87626D01*
X409063Y87720D01*
X409193Y87810D01*
X409326Y87898D01*
X409461Y87982D01*
X409598Y88062D01*
X409737Y88140D01*
X409878Y88213D01*
X410020Y88283D01*
X410165Y88350D01*
X410311Y88413D01*
X410458Y88472D01*
X410607Y88528D01*
X410758Y88579D01*
X410909Y88627D01*
X411062Y88671D01*
X411216Y88712D01*
X411370Y88748D01*
X411526Y88781D01*
X411682Y88810D01*
X411839Y88834D01*
X411997Y88855D01*
X412155Y88872D01*
X412313Y88885D01*
X412472Y88894D01*
X412631Y88899D01*
X412790Y88900D01*
X412949Y88897D01*
X413107Y88890D01*
X413266Y88879D01*
X413424Y88864D01*
X413582Y88845D01*
X413739Y88822D01*
X413896Y88796D01*
X414052Y88765D01*
X414207Y88731D01*
X414361Y88692D01*
X414515Y88650D01*
X414667Y88604D01*
X414818Y88554D01*
X414967Y88500D01*
X415116Y88443D01*
X415262Y88382D01*
X415408Y88317D01*
X415551Y88249D01*
X415693Y88177D01*
X415833Y88101D01*
X415971Y88023D01*
X416107Y87940D01*
X416241Y87855D01*
X416372Y87766D01*
X416502Y87673D01*
X416629Y87578D01*
X416753Y87479D01*
X416876Y87377D01*
X416995Y87273D01*
X417112Y87165D01*
X417226Y87054D01*
X417337Y86941D01*
X417446Y86825D01*
X417551Y86706D01*
X417654Y86584D01*
X417753Y86460D01*
X417850Y86334D01*
X417943Y86205D01*
X418033Y86074D01*
X418119Y85940D01*
X418202Y85805D01*
X418282Y85667D01*
X418358Y85528D01*
X418431Y85387D01*
X418500Y85244D01*
X418566Y85099D01*
X418628Y84952D01*
X418686Y84805D01*
X418741Y84655D01*
X418792Y84505D01*
X418839Y84353D01*
X418882Y84200D01*
X418921Y84046D01*
X418957Y83891D01*
X418988Y83735D01*
X419016Y83579D01*
X419040Y83422D01*
X419060Y83264D01*
X419076Y83106D01*
X419088Y82947D01*
X419096Y82788D01*
X419100Y82629D01*
X419100Y82471D01*
X419096Y82312D01*
X419088Y82153D01*
X419076Y81994D01*
X419060Y81836D01*
X419040Y81678D01*
X419016Y81521D01*
X418988Y81365D01*
X418957Y81209D01*
X418921Y81054D01*
X418882Y80900D01*
X418839Y80747D01*
X418792Y80595D01*
X418741Y80445D01*
X418686Y80295D01*
X418628Y80148D01*
X418566Y80001D01*
X418500Y79856D01*
X418431Y79713D01*
X418358Y79572D01*
X418282Y79433D01*
X418202Y79295D01*
X418119Y79160D01*
X418033Y79026D01*
X417943Y78895D01*
X417850Y78766D01*
X417753Y78640D01*
X417654Y78516D01*
X417551Y78394D01*
X417446Y78275D01*
X417337Y78159D01*
X417226Y78046D01*
X417112Y77935D01*
X416995Y77827D01*
X416876Y77723D01*
X416753Y77621D01*
X416629Y77522D01*
X416502Y77427D01*
X416372Y77334D01*
X416241Y77245D01*
X416107Y77160D01*
X415971Y77077D01*
X415833Y76999D01*
X415693Y76923D01*
X415551Y76851D01*
X415408Y76783D01*
X415262Y76718D01*
X415116Y76657D01*
X414967Y76600D01*
X414818Y76546D01*
X414667Y76496D01*
X414515Y76450D01*
X414361Y76408D01*
X414207Y76369D01*
X414052Y76335D01*
X413896Y76304D01*
X413739Y76278D01*
X413582Y76255D01*
X413424Y76236D01*
X413266Y76221D01*
X413107Y76210D01*
X412949Y76203D01*
X412790Y76200D01*
X412631Y76201D01*
X412472Y76206D01*
X412313Y76215D01*
X412155Y76228D01*
X411997Y76245D01*
X411839Y76266D01*
X411682Y76290D01*
X411526Y76319D01*
X411370Y76352D01*
X411216Y76388D01*
X411062Y76429D01*
X410909Y76473D01*
X410758Y76521D01*
X410607Y76572D01*
X410458Y76628D01*
X410311Y76687D01*
X410165Y76750D01*
X410020Y76817D01*
X409878Y76887D01*
X409737Y76960D01*
X409598Y77038D01*
X409461Y77118D01*
X409326Y77202D01*
X409193Y77290D01*
X409063Y77380D01*
X408934Y77474D01*
X408809Y77571D01*
X408685Y77671D01*
X408564Y77775D01*
X408446Y77881D01*
X408331Y77990D01*
X408218Y78102D01*
X408108Y78217D01*
X408001Y78335D01*
X407897Y78455D01*
X407796Y78578D01*
X407698Y78703D01*
X407603Y78830D01*
X407512Y78960D01*
X407424Y79093D01*
X407339Y79227D01*
X407257Y79364D01*
X407179Y79502D01*
X407105Y79642D01*
X407034Y79785D01*
X406966Y79929D01*
X406903Y80074D01*
X406842Y80221D01*
X406786Y80370D01*
X406733Y80520D01*
X406684Y80671D01*
X406639Y80823D01*
X406598Y80977D01*
X406560Y81131D01*
X406527Y81287D01*
X406497Y81443D01*
X406471Y81600D01*
X406450Y81757D01*
X406432Y81915D01*
X406418Y82074D01*
X406408Y82232D01*
X406402Y82391D01*
X406400Y82550D01*
D12*
X240500Y254800D02*
X240500Y304800D01*
X240500Y214800D02*
X240500Y179800D01*
X140500Y179800D01*
X140500Y214800D01*
X140500Y254800D02*
X140500Y304800D01*
X150500Y304800D01*
X230500Y304800D02*
X240500Y304800D01*
X160500Y234800D02*
X160509Y235536D01*
X160536Y236272D01*
X160581Y237007D01*
X160644Y237741D01*
X160726Y238472D01*
X160825Y239202D01*
X160942Y239929D01*
X161076Y240653D01*
X161229Y241373D01*
X161399Y242089D01*
X161587Y242801D01*
X161792Y243509D01*
X162014Y244210D01*
X162254Y244907D01*
X162510Y245597D01*
X162784Y246281D01*
X163074Y246957D01*
X163380Y247627D01*
X163703Y248288D01*
X164042Y248942D01*
X164397Y249587D01*
X164768Y250223D01*
X165154Y250850D01*
X165556Y251467D01*
X165972Y252074D01*
X166404Y252671D01*
X166850Y253257D01*
X167310Y253832D01*
X167784Y254395D01*
X168271Y254947D01*
X168773Y255486D01*
X169287Y256013D01*
X169814Y256527D01*
X170353Y257029D01*
X170905Y257516D01*
X171468Y257990D01*
X172043Y258450D01*
X172629Y258896D01*
X173226Y259328D01*
X173833Y259744D01*
X174450Y260146D01*
X175077Y260532D01*
X175713Y260903D01*
X176358Y261258D01*
X177012Y261597D01*
X177673Y261920D01*
X178343Y262226D01*
X179019Y262516D01*
X179703Y262790D01*
X180393Y263046D01*
X181090Y263286D01*
X181791Y263508D01*
X182499Y263713D01*
X183211Y263901D01*
X183927Y264071D01*
X184647Y264224D01*
X185371Y264358D01*
X186098Y264475D01*
X186828Y264574D01*
X187559Y264656D01*
X188293Y264719D01*
X189028Y264764D01*
X189764Y264791D01*
X190500Y264800D01*
X191236Y264791D01*
X191972Y264764D01*
X192707Y264719D01*
X193441Y264656D01*
X194172Y264574D01*
X194902Y264475D01*
X195629Y264358D01*
X196353Y264224D01*
X197073Y264071D01*
X197789Y263901D01*
X198501Y263713D01*
X199209Y263508D01*
X199910Y263286D01*
X200607Y263046D01*
X201297Y262790D01*
X201981Y262516D01*
X202657Y262226D01*
X203327Y261920D01*
X203988Y261597D01*
X204642Y261258D01*
X205287Y260903D01*
X205923Y260532D01*
X206550Y260146D01*
X207167Y259744D01*
X207774Y259328D01*
X208371Y258896D01*
X208957Y258450D01*
X209532Y257990D01*
X210095Y257516D01*
X210647Y257029D01*
X211186Y256527D01*
X211713Y256013D01*
X212227Y255486D01*
X212729Y254947D01*
X213216Y254395D01*
X213690Y253832D01*
X214150Y253257D01*
X214596Y252671D01*
X215028Y252074D01*
X215444Y251467D01*
X215846Y250850D01*
X216232Y250223D01*
X216603Y249587D01*
X216958Y248942D01*
X217297Y248288D01*
X217620Y247627D01*
X217926Y246957D01*
X218216Y246281D01*
X218490Y245597D01*
X218746Y244907D01*
X218986Y244210D01*
X219208Y243509D01*
X219413Y242801D01*
X219601Y242089D01*
X219771Y241373D01*
X219924Y240653D01*
X220058Y239929D01*
X220175Y239202D01*
X220274Y238472D01*
X220356Y237741D01*
X220419Y237007D01*
X220464Y236272D01*
X220491Y235536D01*
X220500Y234800D01*
X220491Y234064D01*
X220464Y233328D01*
X220419Y232593D01*
X220356Y231859D01*
X220274Y231128D01*
X220175Y230398D01*
X220058Y229671D01*
X219924Y228947D01*
X219771Y228227D01*
X219601Y227511D01*
X219413Y226799D01*
X219208Y226091D01*
X218986Y225390D01*
X218746Y224693D01*
X218490Y224003D01*
X218216Y223319D01*
X217926Y222643D01*
X217620Y221973D01*
X217297Y221312D01*
X216958Y220658D01*
X216603Y220013D01*
X216232Y219377D01*
X215846Y218750D01*
X215444Y218133D01*
X215028Y217526D01*
X214596Y216929D01*
X214150Y216343D01*
X213690Y215768D01*
X213216Y215205D01*
X212729Y214653D01*
X212227Y214114D01*
X211713Y213587D01*
X211186Y213073D01*
X210647Y212571D01*
X210095Y212084D01*
X209532Y211610D01*
X208957Y211150D01*
X208371Y210704D01*
X207774Y210272D01*
X207167Y209856D01*
X206550Y209454D01*
X205923Y209068D01*
X205287Y208697D01*
X204642Y208342D01*
X203988Y208003D01*
X203327Y207680D01*
X202657Y207374D01*
X201981Y207084D01*
X201297Y206810D01*
X200607Y206554D01*
X199910Y206314D01*
X199209Y206092D01*
X198501Y205887D01*
X197789Y205699D01*
X197073Y205529D01*
X196353Y205376D01*
X195629Y205242D01*
X194902Y205125D01*
X194172Y205026D01*
X193441Y204944D01*
X192707Y204881D01*
X191972Y204836D01*
X191236Y204809D01*
X190500Y204800D01*
X189764Y204809D01*
X189028Y204836D01*
X188293Y204881D01*
X187559Y204944D01*
X186828Y205026D01*
X186098Y205125D01*
X185371Y205242D01*
X184647Y205376D01*
X183927Y205529D01*
X183211Y205699D01*
X182499Y205887D01*
X181791Y206092D01*
X181090Y206314D01*
X180393Y206554D01*
X179703Y206810D01*
X179019Y207084D01*
X178343Y207374D01*
X177673Y207680D01*
X177012Y208003D01*
X176358Y208342D01*
X175713Y208697D01*
X175077Y209068D01*
X174450Y209454D01*
X173833Y209856D01*
X173226Y210272D01*
X172629Y210704D01*
X172043Y211150D01*
X171468Y211610D01*
X170905Y212084D01*
X170353Y212571D01*
X169814Y213073D01*
X169287Y213587D01*
X168773Y214114D01*
X168271Y214653D01*
X167784Y215205D01*
X167310Y215768D01*
X166850Y216343D01*
X166404Y216929D01*
X165972Y217526D01*
X165556Y218133D01*
X165154Y218750D01*
X164768Y219377D01*
X164397Y220013D01*
X164042Y220658D01*
X163703Y221312D01*
X163380Y221973D01*
X163074Y222643D01*
X162784Y223319D01*
X162510Y224003D01*
X162254Y224693D01*
X162014Y225390D01*
X161792Y226091D01*
X161587Y226799D01*
X161399Y227511D01*
X161229Y228227D01*
X161076Y228947D01*
X160942Y229671D01*
X160825Y230398D01*
X160726Y231128D01*
X160644Y231859D01*
X160581Y232593D01*
X160536Y233328D01*
X160509Y234064D01*
X160500Y234800D01*
D13*
X108691Y267462D02*
X108691Y278638D01*
X111796Y278638D01*
X111907Y278636D01*
X112017Y278630D01*
X112128Y278620D01*
X112238Y278606D01*
X112347Y278589D01*
X112456Y278567D01*
X112564Y278542D01*
X112670Y278512D01*
X112776Y278479D01*
X112881Y278442D01*
X112984Y278402D01*
X113085Y278357D01*
X113185Y278310D01*
X113284Y278258D01*
X113380Y278203D01*
X113474Y278145D01*
X113566Y278084D01*
X113656Y278019D01*
X113744Y277951D01*
X113829Y277880D01*
X113911Y277806D01*
X113991Y277729D01*
X114068Y277649D01*
X114142Y277567D01*
X114213Y277482D01*
X114281Y277394D01*
X114346Y277304D01*
X114407Y277212D01*
X114465Y277118D01*
X114520Y277022D01*
X114572Y276923D01*
X114619Y276823D01*
X114664Y276722D01*
X114704Y276619D01*
X114741Y276514D01*
X114774Y276408D01*
X114804Y276302D01*
X114829Y276194D01*
X114851Y276085D01*
X114868Y275976D01*
X114882Y275866D01*
X114892Y275755D01*
X114898Y275645D01*
X114900Y275534D01*
X114898Y275423D01*
X114892Y275313D01*
X114882Y275202D01*
X114868Y275092D01*
X114851Y274983D01*
X114829Y274874D01*
X114804Y274766D01*
X114774Y274660D01*
X114741Y274554D01*
X114704Y274449D01*
X114664Y274346D01*
X114619Y274245D01*
X114572Y274145D01*
X114520Y274046D01*
X114465Y273950D01*
X114407Y273856D01*
X114346Y273764D01*
X114281Y273674D01*
X114213Y273586D01*
X114142Y273501D01*
X114068Y273419D01*
X113991Y273339D01*
X113911Y273262D01*
X113829Y273188D01*
X113744Y273117D01*
X113656Y273049D01*
X113566Y272984D01*
X113474Y272923D01*
X113380Y272865D01*
X113284Y272810D01*
X113185Y272758D01*
X113085Y272711D01*
X112984Y272666D01*
X112881Y272626D01*
X112776Y272589D01*
X112670Y272556D01*
X112564Y272526D01*
X112456Y272501D01*
X112347Y272479D01*
X112238Y272462D01*
X112128Y272448D01*
X112017Y272438D01*
X111907Y272432D01*
X111796Y272430D01*
X111796Y272429D02*
X108691Y272429D01*
X112416Y272429D02*
X114900Y267462D01*
X120029Y276154D02*
X123134Y278638D01*
X123134Y267462D01*
X126238Y267462D02*
X120029Y267462D01*
D11*
X409900Y204000D02*
X409903Y203758D01*
X409912Y203517D01*
X409926Y203276D01*
X409947Y203035D01*
X409973Y202795D01*
X410005Y202555D01*
X410043Y202316D01*
X410086Y202079D01*
X410136Y201842D01*
X410191Y201607D01*
X410251Y201373D01*
X410318Y201141D01*
X410389Y200910D01*
X410467Y200681D01*
X410550Y200454D01*
X410638Y200229D01*
X410732Y200006D01*
X410831Y199786D01*
X410936Y199568D01*
X411045Y199353D01*
X411160Y199140D01*
X411280Y198930D01*
X411405Y198724D01*
X411535Y198520D01*
X411670Y198319D01*
X411810Y198122D01*
X411954Y197928D01*
X412103Y197738D01*
X412257Y197552D01*
X412415Y197369D01*
X412577Y197190D01*
X412744Y197015D01*
X412915Y196844D01*
X413090Y196677D01*
X413269Y196515D01*
X413452Y196357D01*
X413638Y196203D01*
X413828Y196054D01*
X414022Y195910D01*
X414219Y195770D01*
X414420Y195635D01*
X414624Y195505D01*
X414830Y195380D01*
X415040Y195260D01*
X415253Y195145D01*
X415468Y195036D01*
X415686Y194931D01*
X415906Y194832D01*
X416129Y194738D01*
X416354Y194650D01*
X416581Y194567D01*
X416810Y194489D01*
X417041Y194418D01*
X417273Y194351D01*
X417507Y194291D01*
X417742Y194236D01*
X417979Y194186D01*
X418216Y194143D01*
X418455Y194105D01*
X418695Y194073D01*
X418935Y194047D01*
X419176Y194026D01*
X419417Y194012D01*
X419658Y194003D01*
X419900Y194000D01*
X409900Y204000D02*
X409900Y304000D01*
X409903Y304242D01*
X409912Y304483D01*
X409926Y304724D01*
X409947Y304965D01*
X409973Y305205D01*
X410005Y305445D01*
X410043Y305684D01*
X410086Y305921D01*
X410136Y306158D01*
X410191Y306393D01*
X410251Y306627D01*
X410318Y306859D01*
X410389Y307090D01*
X410467Y307319D01*
X410550Y307546D01*
X410638Y307771D01*
X410732Y307994D01*
X410831Y308214D01*
X410936Y308432D01*
X411045Y308647D01*
X411160Y308860D01*
X411280Y309070D01*
X411405Y309276D01*
X411535Y309480D01*
X411670Y309681D01*
X411810Y309878D01*
X411954Y310072D01*
X412103Y310262D01*
X412257Y310448D01*
X412415Y310631D01*
X412577Y310810D01*
X412744Y310985D01*
X412915Y311156D01*
X413090Y311323D01*
X413269Y311485D01*
X413452Y311643D01*
X413638Y311797D01*
X413828Y311946D01*
X414022Y312090D01*
X414219Y312230D01*
X414420Y312365D01*
X414624Y312495D01*
X414830Y312620D01*
X415040Y312740D01*
X415253Y312855D01*
X415468Y312964D01*
X415686Y313069D01*
X415906Y313168D01*
X416129Y313262D01*
X416354Y313350D01*
X416581Y313433D01*
X416810Y313511D01*
X417041Y313582D01*
X417273Y313649D01*
X417507Y313709D01*
X417742Y313764D01*
X417979Y313814D01*
X418216Y313857D01*
X418455Y313895D01*
X418695Y313927D01*
X418935Y313953D01*
X419176Y313974D01*
X419417Y313988D01*
X419658Y313997D01*
X419900Y314000D01*
X519900Y314000D02*
X520142Y313997D01*
X520383Y313988D01*
X520624Y313974D01*
X520865Y313953D01*
X521105Y313927D01*
X521345Y313895D01*
X521584Y313857D01*
X521821Y313814D01*
X522058Y313764D01*
X522293Y313709D01*
X522527Y313649D01*
X522759Y313582D01*
X522990Y313511D01*
X523219Y313433D01*
X523446Y313350D01*
X523671Y313262D01*
X523894Y313168D01*
X524114Y313069D01*
X524332Y312964D01*
X524547Y312855D01*
X524760Y312740D01*
X524970Y312620D01*
X525176Y312495D01*
X525380Y312365D01*
X525581Y312230D01*
X525778Y312090D01*
X525972Y311946D01*
X526162Y311797D01*
X526348Y311643D01*
X526531Y311485D01*
X526710Y311323D01*
X526885Y311156D01*
X527056Y310985D01*
X527223Y310810D01*
X527385Y310631D01*
X527543Y310448D01*
X527697Y310262D01*
X527846Y310072D01*
X527990Y309878D01*
X528130Y309681D01*
X528265Y309480D01*
X528395Y309276D01*
X528520Y309070D01*
X528640Y308860D01*
X528755Y308647D01*
X528864Y308432D01*
X528969Y308214D01*
X529068Y307994D01*
X529162Y307771D01*
X529250Y307546D01*
X529333Y307319D01*
X529411Y307090D01*
X529482Y306859D01*
X529549Y306627D01*
X529609Y306393D01*
X529664Y306158D01*
X529714Y305921D01*
X529757Y305684D01*
X529795Y305445D01*
X529827Y305205D01*
X529853Y304965D01*
X529874Y304724D01*
X529888Y304483D01*
X529897Y304242D01*
X529900Y304000D01*
X529900Y204000D01*
X529897Y203758D01*
X529888Y203517D01*
X529874Y203276D01*
X529853Y203035D01*
X529827Y202795D01*
X529795Y202555D01*
X529757Y202316D01*
X529714Y202079D01*
X529664Y201842D01*
X529609Y201607D01*
X529549Y201373D01*
X529482Y201141D01*
X529411Y200910D01*
X529333Y200681D01*
X529250Y200454D01*
X529162Y200229D01*
X529068Y200006D01*
X528969Y199786D01*
X528864Y199568D01*
X528755Y199353D01*
X528640Y199140D01*
X528520Y198930D01*
X528395Y198724D01*
X528265Y198520D01*
X528130Y198319D01*
X527990Y198122D01*
X527846Y197928D01*
X527697Y197738D01*
X527543Y197552D01*
X527385Y197369D01*
X527223Y197190D01*
X527056Y197015D01*
X526885Y196844D01*
X526710Y196677D01*
X526531Y196515D01*
X526348Y196357D01*
X526162Y196203D01*
X525972Y196054D01*
X525778Y195910D01*
X525581Y195770D01*
X525380Y195635D01*
X525176Y195505D01*
X524970Y195380D01*
X524760Y195260D01*
X524547Y195145D01*
X524332Y195036D01*
X524114Y194931D01*
X523894Y194832D01*
X523671Y194738D01*
X523446Y194650D01*
X523219Y194567D01*
X522990Y194489D01*
X522759Y194418D01*
X522527Y194351D01*
X522293Y194291D01*
X522058Y194236D01*
X521821Y194186D01*
X521584Y194143D01*
X521345Y194105D01*
X521105Y194073D01*
X520865Y194047D01*
X520624Y194026D01*
X520383Y194012D01*
X520142Y194003D01*
X519900Y194000D01*
X434545Y254000D02*
X434556Y254868D01*
X434588Y255735D01*
X434641Y256601D01*
X434715Y257465D01*
X434811Y258328D01*
X434928Y259188D01*
X435066Y260044D01*
X435224Y260897D01*
X435404Y261746D01*
X435605Y262591D01*
X435826Y263430D01*
X436067Y264263D01*
X436329Y265090D01*
X436612Y265911D01*
X436914Y266724D01*
X437236Y267530D01*
X437578Y268327D01*
X437939Y269116D01*
X438320Y269896D01*
X438720Y270666D01*
X439138Y271426D01*
X439575Y272176D01*
X440030Y272915D01*
X440503Y273642D01*
X440994Y274358D01*
X441503Y275061D01*
X442028Y275752D01*
X442570Y276429D01*
X443129Y277093D01*
X443704Y277743D01*
X444294Y278379D01*
X444900Y279000D01*
X445521Y279606D01*
X446157Y280196D01*
X446807Y280771D01*
X447471Y281330D01*
X448148Y281872D01*
X448839Y282397D01*
X449542Y282906D01*
X450258Y283397D01*
X450985Y283870D01*
X451724Y284325D01*
X452474Y284762D01*
X453234Y285180D01*
X454004Y285580D01*
X454784Y285961D01*
X455573Y286322D01*
X456370Y286664D01*
X457176Y286986D01*
X457989Y287288D01*
X458810Y287571D01*
X459637Y287833D01*
X460470Y288074D01*
X461309Y288295D01*
X462154Y288496D01*
X463003Y288676D01*
X463856Y288834D01*
X464712Y288972D01*
X465572Y289089D01*
X466435Y289185D01*
X467299Y289259D01*
X468165Y289312D01*
X469032Y289344D01*
X469900Y289355D01*
X470768Y289344D01*
X471635Y289312D01*
X472501Y289259D01*
X473365Y289185D01*
X474228Y289089D01*
X475088Y288972D01*
X475944Y288834D01*
X476797Y288676D01*
X477646Y288496D01*
X478491Y288295D01*
X479330Y288074D01*
X480163Y287833D01*
X480990Y287571D01*
X481811Y287288D01*
X482624Y286986D01*
X483430Y286664D01*
X484227Y286322D01*
X485016Y285961D01*
X485796Y285580D01*
X486566Y285180D01*
X487326Y284762D01*
X488076Y284325D01*
X488815Y283870D01*
X489542Y283397D01*
X490258Y282906D01*
X490961Y282397D01*
X491652Y281872D01*
X492329Y281330D01*
X492993Y280771D01*
X493643Y280196D01*
X494279Y279606D01*
X494900Y279000D01*
X495506Y278379D01*
X496096Y277743D01*
X496671Y277093D01*
X497230Y276429D01*
X497772Y275752D01*
X498297Y275061D01*
X498806Y274358D01*
X499297Y273642D01*
X499770Y272915D01*
X500225Y272176D01*
X500662Y271426D01*
X501080Y270666D01*
X501480Y269896D01*
X501861Y269116D01*
X502222Y268327D01*
X502564Y267530D01*
X502886Y266724D01*
X503188Y265911D01*
X503471Y265090D01*
X503733Y264263D01*
X503974Y263430D01*
X504195Y262591D01*
X504396Y261746D01*
X504576Y260897D01*
X504734Y260044D01*
X504872Y259188D01*
X504989Y258328D01*
X505085Y257465D01*
X505159Y256601D01*
X505212Y255735D01*
X505244Y254868D01*
X505255Y254000D01*
X505244Y253132D01*
X505212Y252265D01*
X505159Y251399D01*
X505085Y250535D01*
X504989Y249672D01*
X504872Y248812D01*
X504734Y247956D01*
X504576Y247103D01*
X504396Y246254D01*
X504195Y245409D01*
X503974Y244570D01*
X503733Y243737D01*
X503471Y242910D01*
X503188Y242089D01*
X502886Y241276D01*
X502564Y240470D01*
X502222Y239673D01*
X501861Y238884D01*
X501480Y238104D01*
X501080Y237334D01*
X500662Y236574D01*
X500225Y235824D01*
X499770Y235085D01*
X499297Y234358D01*
X498806Y233642D01*
X498297Y232939D01*
X497772Y232248D01*
X497230Y231571D01*
X496671Y230907D01*
X496096Y230257D01*
X495506Y229621D01*
X494900Y229000D01*
X494279Y228394D01*
X493643Y227804D01*
X492993Y227229D01*
X492329Y226670D01*
X491652Y226128D01*
X490961Y225603D01*
X490258Y225094D01*
X489542Y224603D01*
X488815Y224130D01*
X488076Y223675D01*
X487326Y223238D01*
X486566Y222820D01*
X485796Y222420D01*
X485016Y222039D01*
X484227Y221678D01*
X483430Y221336D01*
X482624Y221014D01*
X481811Y220712D01*
X480990Y220429D01*
X480163Y220167D01*
X479330Y219926D01*
X478491Y219705D01*
X477646Y219504D01*
X476797Y219324D01*
X475944Y219166D01*
X475088Y219028D01*
X474228Y218911D01*
X473365Y218815D01*
X472501Y218741D01*
X471635Y218688D01*
X470768Y218656D01*
X469900Y218645D01*
X469032Y218656D01*
X468165Y218688D01*
X467299Y218741D01*
X466435Y218815D01*
X465572Y218911D01*
X464712Y219028D01*
X463856Y219166D01*
X463003Y219324D01*
X462154Y219504D01*
X461309Y219705D01*
X460470Y219926D01*
X459637Y220167D01*
X458810Y220429D01*
X457989Y220712D01*
X457176Y221014D01*
X456370Y221336D01*
X455573Y221678D01*
X454784Y222039D01*
X454004Y222420D01*
X453234Y222820D01*
X452474Y223238D01*
X451724Y223675D01*
X450985Y224130D01*
X450258Y224603D01*
X449542Y225094D01*
X448839Y225603D01*
X448148Y226128D01*
X447471Y226670D01*
X446807Y227229D01*
X446157Y227804D01*
X445521Y228394D01*
X444900Y229000D01*
X444294Y229621D01*
X443704Y230257D01*
X443129Y230907D01*
X442570Y231571D01*
X442028Y232248D01*
X441503Y232939D01*
X440994Y233642D01*
X440503Y234358D01*
X440030Y235085D01*
X439575Y235824D01*
X439138Y236574D01*
X438720Y237334D01*
X438320Y238104D01*
X437939Y238884D01*
X437578Y239673D01*
X437236Y240470D01*
X436914Y241276D01*
X436612Y242089D01*
X436329Y242910D01*
X436067Y243737D01*
X435826Y244570D01*
X435605Y245409D01*
X435404Y246254D01*
X435224Y247103D01*
X435066Y247956D01*
X434928Y248812D01*
X434811Y249672D01*
X434715Y250535D01*
X434641Y251399D01*
X434588Y252265D01*
X434556Y253132D01*
X434545Y254000D01*
X489900Y274000D02*
X489900Y234000D01*
X449900Y234000D01*
X449900Y274000D01*
X489900Y274000D01*
X507400Y314000D02*
X519900Y314000D01*
X482400Y314000D02*
X457400Y314000D01*
X432400Y314000D02*
X419900Y314000D01*
X507400Y194000D02*
X519900Y194000D01*
X482400Y194000D02*
X457400Y194000D01*
X432400Y194000D02*
X419900Y194000D01*
D13*
X380112Y206446D02*
X380110Y206348D01*
X380104Y206251D01*
X380095Y206154D01*
X380081Y206057D01*
X380064Y205961D01*
X380043Y205866D01*
X380019Y205772D01*
X379990Y205678D01*
X379958Y205586D01*
X379923Y205495D01*
X379884Y205406D01*
X379841Y205318D01*
X379795Y205232D01*
X379746Y205148D01*
X379693Y205066D01*
X379638Y204986D01*
X379579Y204908D01*
X379517Y204833D01*
X379452Y204760D01*
X379384Y204690D01*
X379314Y204622D01*
X379241Y204557D01*
X379166Y204495D01*
X379088Y204436D01*
X379008Y204381D01*
X378926Y204328D01*
X378842Y204279D01*
X378756Y204233D01*
X378668Y204190D01*
X378579Y204151D01*
X378488Y204116D01*
X378396Y204084D01*
X378302Y204055D01*
X378208Y204031D01*
X378113Y204010D01*
X378017Y203993D01*
X377920Y203979D01*
X377823Y203970D01*
X377725Y203964D01*
X377628Y203962D01*
X377485Y203964D01*
X377342Y203970D01*
X377200Y203979D01*
X377058Y203993D01*
X376916Y204011D01*
X376775Y204032D01*
X376634Y204057D01*
X376494Y204086D01*
X376355Y204119D01*
X376217Y204155D01*
X376080Y204196D01*
X375944Y204240D01*
X375809Y204287D01*
X375676Y204339D01*
X375544Y204394D01*
X375414Y204452D01*
X375285Y204514D01*
X375158Y204580D01*
X375033Y204649D01*
X374910Y204721D01*
X374789Y204797D01*
X374670Y204875D01*
X374553Y204958D01*
X374438Y205043D01*
X374326Y205131D01*
X374216Y205223D01*
X374109Y205317D01*
X374004Y205414D01*
X373902Y205514D01*
X374212Y212654D02*
X374214Y212752D01*
X374220Y212849D01*
X374229Y212946D01*
X374243Y213043D01*
X374260Y213139D01*
X374281Y213234D01*
X374305Y213328D01*
X374334Y213422D01*
X374366Y213514D01*
X374401Y213605D01*
X374440Y213694D01*
X374483Y213782D01*
X374529Y213868D01*
X374578Y213952D01*
X374631Y214034D01*
X374686Y214114D01*
X374745Y214192D01*
X374807Y214267D01*
X374872Y214340D01*
X374940Y214410D01*
X375010Y214478D01*
X375083Y214543D01*
X375158Y214605D01*
X375236Y214664D01*
X375316Y214719D01*
X375398Y214772D01*
X375482Y214821D01*
X375568Y214867D01*
X375656Y214910D01*
X375745Y214949D01*
X375836Y214984D01*
X375928Y215016D01*
X376022Y215045D01*
X376116Y215069D01*
X376211Y215090D01*
X376307Y215107D01*
X376404Y215121D01*
X376501Y215130D01*
X376598Y215136D01*
X376696Y215138D01*
X376826Y215136D01*
X376956Y215131D01*
X377086Y215122D01*
X377216Y215109D01*
X377345Y215093D01*
X377474Y215073D01*
X377602Y215049D01*
X377730Y215022D01*
X377856Y214991D01*
X377982Y214957D01*
X378107Y214919D01*
X378230Y214878D01*
X378353Y214833D01*
X378474Y214785D01*
X378594Y214734D01*
X378712Y214679D01*
X378828Y214621D01*
X378943Y214560D01*
X379057Y214495D01*
X379168Y214428D01*
X379277Y214357D01*
X379385Y214283D01*
X379490Y214207D01*
X375455Y210481D02*
X375372Y210532D01*
X375291Y210586D01*
X375213Y210643D01*
X375137Y210703D01*
X375063Y210766D01*
X374992Y210832D01*
X374923Y210900D01*
X374857Y210971D01*
X374793Y211044D01*
X374733Y211120D01*
X374676Y211198D01*
X374621Y211279D01*
X374570Y211361D01*
X374522Y211445D01*
X374477Y211531D01*
X374435Y211619D01*
X374397Y211708D01*
X374363Y211798D01*
X374331Y211890D01*
X374304Y211983D01*
X374280Y212077D01*
X374259Y212172D01*
X374243Y212268D01*
X374230Y212364D01*
X374220Y212460D01*
X374215Y212557D01*
X374213Y212654D01*
X378869Y208619D02*
X378952Y208568D01*
X379033Y208514D01*
X379111Y208457D01*
X379187Y208397D01*
X379261Y208334D01*
X379332Y208268D01*
X379401Y208200D01*
X379467Y208129D01*
X379531Y208056D01*
X379591Y207980D01*
X379648Y207902D01*
X379703Y207821D01*
X379754Y207739D01*
X379802Y207655D01*
X379847Y207569D01*
X379889Y207481D01*
X379927Y207392D01*
X379961Y207302D01*
X379993Y207210D01*
X380020Y207117D01*
X380044Y207023D01*
X380065Y206928D01*
X380081Y206832D01*
X380094Y206736D01*
X380104Y206640D01*
X380109Y206543D01*
X380111Y206446D01*
X378869Y208619D02*
X375454Y210481D01*
X384612Y215138D02*
X387096Y203962D01*
X389580Y211413D01*
X392063Y203962D01*
X394547Y215138D01*
X399429Y212654D02*
X402534Y215138D01*
X402534Y203962D01*
X405638Y203962D02*
X399429Y203962D01*
D12*
X520700Y337820D02*
X520700Y347980D01*
D13*
X546862Y342138D02*
X546862Y330962D01*
X546862Y342138D02*
X549966Y342138D01*
X550077Y342136D01*
X550187Y342130D01*
X550298Y342120D01*
X550408Y342106D01*
X550517Y342089D01*
X550626Y342067D01*
X550734Y342042D01*
X550840Y342012D01*
X550946Y341979D01*
X551051Y341942D01*
X551154Y341902D01*
X551255Y341857D01*
X551355Y341810D01*
X551454Y341758D01*
X551550Y341703D01*
X551644Y341645D01*
X551736Y341584D01*
X551826Y341519D01*
X551914Y341451D01*
X551999Y341380D01*
X552081Y341306D01*
X552161Y341229D01*
X552238Y341149D01*
X552312Y341067D01*
X552383Y340982D01*
X552451Y340894D01*
X552516Y340804D01*
X552577Y340712D01*
X552635Y340618D01*
X552690Y340522D01*
X552742Y340423D01*
X552789Y340323D01*
X552834Y340222D01*
X552874Y340119D01*
X552911Y340014D01*
X552944Y339908D01*
X552974Y339802D01*
X552999Y339694D01*
X553021Y339585D01*
X553038Y339476D01*
X553052Y339366D01*
X553062Y339255D01*
X553068Y339145D01*
X553070Y339034D01*
X553068Y338923D01*
X553062Y338813D01*
X553052Y338702D01*
X553038Y338592D01*
X553021Y338483D01*
X552999Y338374D01*
X552974Y338266D01*
X552944Y338160D01*
X552911Y338054D01*
X552874Y337949D01*
X552834Y337846D01*
X552789Y337745D01*
X552742Y337645D01*
X552690Y337546D01*
X552635Y337450D01*
X552577Y337356D01*
X552516Y337264D01*
X552451Y337174D01*
X552383Y337086D01*
X552312Y337001D01*
X552238Y336919D01*
X552161Y336839D01*
X552081Y336762D01*
X551999Y336688D01*
X551914Y336617D01*
X551826Y336549D01*
X551736Y336484D01*
X551644Y336423D01*
X551550Y336365D01*
X551454Y336310D01*
X551355Y336258D01*
X551255Y336211D01*
X551154Y336166D01*
X551051Y336126D01*
X550946Y336089D01*
X550840Y336056D01*
X550734Y336026D01*
X550626Y336001D01*
X550517Y335979D01*
X550408Y335962D01*
X550298Y335948D01*
X550187Y335938D01*
X550077Y335932D01*
X549966Y335930D01*
X549966Y335929D02*
X546862Y335929D01*
X550587Y335929D02*
X553071Y330962D01*
X561615Y342138D02*
X561719Y342136D01*
X561824Y342130D01*
X561928Y342120D01*
X562031Y342107D01*
X562134Y342089D01*
X562237Y342068D01*
X562338Y342043D01*
X562439Y342014D01*
X562538Y341981D01*
X562636Y341945D01*
X562732Y341905D01*
X562827Y341861D01*
X562921Y341814D01*
X563012Y341764D01*
X563101Y341710D01*
X563189Y341653D01*
X563274Y341592D01*
X563357Y341528D01*
X563437Y341462D01*
X563515Y341392D01*
X563591Y341320D01*
X563663Y341244D01*
X563733Y341166D01*
X563799Y341086D01*
X563863Y341003D01*
X563924Y340918D01*
X563981Y340830D01*
X564035Y340741D01*
X564085Y340650D01*
X564132Y340556D01*
X564176Y340461D01*
X564216Y340365D01*
X564252Y340267D01*
X564285Y340168D01*
X564314Y340067D01*
X564339Y339966D01*
X564360Y339863D01*
X564378Y339760D01*
X564391Y339657D01*
X564401Y339553D01*
X564407Y339448D01*
X564409Y339344D01*
X561615Y342139D02*
X561496Y342137D01*
X561378Y342131D01*
X561259Y342121D01*
X561141Y342108D01*
X561024Y342090D01*
X560907Y342068D01*
X560791Y342043D01*
X560676Y342014D01*
X560561Y341981D01*
X560448Y341944D01*
X560337Y341904D01*
X560226Y341860D01*
X560118Y341812D01*
X560011Y341761D01*
X559905Y341706D01*
X559802Y341647D01*
X559700Y341586D01*
X559601Y341521D01*
X559503Y341452D01*
X559409Y341381D01*
X559316Y341306D01*
X559226Y341229D01*
X559139Y341148D01*
X559054Y341065D01*
X558972Y340979D01*
X558893Y340890D01*
X558817Y340799D01*
X558744Y340705D01*
X558675Y340609D01*
X558608Y340510D01*
X558545Y340410D01*
X558485Y340307D01*
X558428Y340203D01*
X558376Y340096D01*
X558326Y339988D01*
X558280Y339879D01*
X558238Y339767D01*
X558200Y339655D01*
X563478Y337171D02*
X563553Y337245D01*
X563625Y337322D01*
X563695Y337401D01*
X563762Y337483D01*
X563826Y337567D01*
X563887Y337653D01*
X563945Y337741D01*
X564000Y337832D01*
X564052Y337924D01*
X564100Y338018D01*
X564145Y338113D01*
X564187Y338211D01*
X564225Y338309D01*
X564260Y338409D01*
X564291Y338510D01*
X564318Y338612D01*
X564342Y338715D01*
X564363Y338818D01*
X564379Y338923D01*
X564392Y339028D01*
X564402Y339133D01*
X564407Y339238D01*
X564409Y339344D01*
X563478Y337171D02*
X558200Y330962D01*
X564409Y330962D01*
D12*
X13100Y363500D02*
X13100Y723500D01*
X813100Y723500D01*
X813100Y363500D01*
X13100Y363500D01*
D14*
X91200Y696900D02*
X91202Y696963D01*
X91208Y697025D01*
X91218Y697087D01*
X91231Y697149D01*
X91249Y697209D01*
X91270Y697268D01*
X91295Y697326D01*
X91324Y697382D01*
X91356Y697436D01*
X91391Y697488D01*
X91429Y697537D01*
X91471Y697585D01*
X91515Y697629D01*
X91563Y697671D01*
X91612Y697709D01*
X91664Y697744D01*
X91718Y697776D01*
X91774Y697805D01*
X91832Y697830D01*
X91891Y697851D01*
X91951Y697869D01*
X92013Y697882D01*
X92075Y697892D01*
X92137Y697898D01*
X92200Y697900D01*
X92263Y697898D01*
X92325Y697892D01*
X92387Y697882D01*
X92449Y697869D01*
X92509Y697851D01*
X92568Y697830D01*
X92626Y697805D01*
X92682Y697776D01*
X92736Y697744D01*
X92788Y697709D01*
X92837Y697671D01*
X92885Y697629D01*
X92929Y697585D01*
X92971Y697537D01*
X93009Y697488D01*
X93044Y697436D01*
X93076Y697382D01*
X93105Y697326D01*
X93130Y697268D01*
X93151Y697209D01*
X93169Y697149D01*
X93182Y697087D01*
X93192Y697025D01*
X93198Y696963D01*
X93200Y696900D01*
X93198Y696837D01*
X93192Y696775D01*
X93182Y696713D01*
X93169Y696651D01*
X93151Y696591D01*
X93130Y696532D01*
X93105Y696474D01*
X93076Y696418D01*
X93044Y696364D01*
X93009Y696312D01*
X92971Y696263D01*
X92929Y696215D01*
X92885Y696171D01*
X92837Y696129D01*
X92788Y696091D01*
X92736Y696056D01*
X92682Y696024D01*
X92626Y695995D01*
X92568Y695970D01*
X92509Y695949D01*
X92449Y695931D01*
X92387Y695918D01*
X92325Y695908D01*
X92263Y695902D01*
X92200Y695900D01*
X92137Y695902D01*
X92075Y695908D01*
X92013Y695918D01*
X91951Y695931D01*
X91891Y695949D01*
X91832Y695970D01*
X91774Y695995D01*
X91718Y696024D01*
X91664Y696056D01*
X91612Y696091D01*
X91563Y696129D01*
X91515Y696171D01*
X91471Y696215D01*
X91429Y696263D01*
X91391Y696312D01*
X91356Y696364D01*
X91324Y696418D01*
X91295Y696474D01*
X91270Y696532D01*
X91249Y696591D01*
X91231Y696651D01*
X91218Y696713D01*
X91208Y696775D01*
X91202Y696837D01*
X91200Y696900D01*
D13*
X67987Y739846D02*
X67987Y748538D01*
X67988Y739846D02*
X67986Y739748D01*
X67980Y739651D01*
X67971Y739554D01*
X67957Y739457D01*
X67940Y739361D01*
X67919Y739266D01*
X67895Y739172D01*
X67866Y739078D01*
X67834Y738986D01*
X67799Y738895D01*
X67760Y738806D01*
X67717Y738718D01*
X67671Y738632D01*
X67622Y738548D01*
X67569Y738466D01*
X67514Y738386D01*
X67455Y738308D01*
X67393Y738233D01*
X67328Y738160D01*
X67260Y738090D01*
X67190Y738022D01*
X67117Y737957D01*
X67042Y737895D01*
X66964Y737836D01*
X66884Y737781D01*
X66802Y737728D01*
X66718Y737679D01*
X66632Y737633D01*
X66544Y737590D01*
X66455Y737551D01*
X66364Y737516D01*
X66272Y737484D01*
X66178Y737455D01*
X66084Y737431D01*
X65989Y737410D01*
X65893Y737393D01*
X65796Y737379D01*
X65699Y737370D01*
X65601Y737364D01*
X65504Y737362D01*
X64262Y737362D01*
X73531Y737362D02*
X76636Y737362D01*
X76747Y737364D01*
X76857Y737370D01*
X76968Y737380D01*
X77078Y737394D01*
X77187Y737411D01*
X77296Y737433D01*
X77404Y737458D01*
X77510Y737488D01*
X77616Y737521D01*
X77721Y737558D01*
X77824Y737598D01*
X77925Y737643D01*
X78025Y737690D01*
X78124Y737742D01*
X78220Y737797D01*
X78314Y737855D01*
X78406Y737916D01*
X78496Y737981D01*
X78584Y738049D01*
X78669Y738120D01*
X78751Y738194D01*
X78831Y738271D01*
X78908Y738351D01*
X78982Y738433D01*
X79053Y738518D01*
X79121Y738606D01*
X79186Y738696D01*
X79247Y738788D01*
X79305Y738882D01*
X79360Y738978D01*
X79412Y739077D01*
X79459Y739177D01*
X79504Y739278D01*
X79544Y739381D01*
X79581Y739486D01*
X79614Y739592D01*
X79644Y739698D01*
X79669Y739806D01*
X79691Y739915D01*
X79708Y740024D01*
X79722Y740134D01*
X79732Y740245D01*
X79738Y740355D01*
X79740Y740466D01*
X79738Y740577D01*
X79732Y740687D01*
X79722Y740798D01*
X79708Y740908D01*
X79691Y741017D01*
X79669Y741126D01*
X79644Y741234D01*
X79614Y741340D01*
X79581Y741446D01*
X79544Y741551D01*
X79504Y741654D01*
X79459Y741755D01*
X79412Y741855D01*
X79360Y741954D01*
X79305Y742050D01*
X79247Y742144D01*
X79186Y742236D01*
X79121Y742326D01*
X79053Y742414D01*
X78982Y742499D01*
X78908Y742581D01*
X78831Y742661D01*
X78751Y742738D01*
X78669Y742812D01*
X78584Y742883D01*
X78496Y742951D01*
X78406Y743016D01*
X78314Y743077D01*
X78220Y743135D01*
X78124Y743190D01*
X78025Y743242D01*
X77925Y743289D01*
X77824Y743334D01*
X77721Y743374D01*
X77616Y743411D01*
X77510Y743444D01*
X77404Y743474D01*
X77296Y743499D01*
X77187Y743521D01*
X77078Y743538D01*
X76968Y743552D01*
X76857Y743562D01*
X76747Y743568D01*
X76636Y743570D01*
X77257Y748538D02*
X73531Y748538D01*
X77257Y748538D02*
X77356Y748536D01*
X77454Y748530D01*
X77553Y748520D01*
X77650Y748507D01*
X77748Y748489D01*
X77844Y748468D01*
X77940Y748442D01*
X78034Y748413D01*
X78127Y748381D01*
X78219Y748344D01*
X78309Y748304D01*
X78398Y748260D01*
X78485Y748213D01*
X78570Y748163D01*
X78652Y748109D01*
X78733Y748052D01*
X78811Y747992D01*
X78887Y747928D01*
X78960Y747862D01*
X79031Y747793D01*
X79099Y747721D01*
X79163Y747646D01*
X79225Y747569D01*
X79284Y747490D01*
X79339Y747408D01*
X79392Y747324D01*
X79440Y747239D01*
X79486Y747151D01*
X79528Y747061D01*
X79566Y746970D01*
X79600Y746878D01*
X79631Y746784D01*
X79658Y746689D01*
X79682Y746593D01*
X79701Y746496D01*
X79717Y746399D01*
X79729Y746301D01*
X79737Y746202D01*
X79741Y746103D01*
X79741Y746005D01*
X79737Y745906D01*
X79729Y745807D01*
X79717Y745709D01*
X79701Y745612D01*
X79682Y745515D01*
X79658Y745419D01*
X79631Y745324D01*
X79600Y745230D01*
X79566Y745138D01*
X79528Y745047D01*
X79486Y744957D01*
X79440Y744869D01*
X79392Y744784D01*
X79339Y744700D01*
X79284Y744618D01*
X79225Y744539D01*
X79163Y744462D01*
X79099Y744387D01*
X79031Y744315D01*
X78960Y744246D01*
X78887Y744180D01*
X78811Y744116D01*
X78733Y744056D01*
X78652Y743999D01*
X78570Y743945D01*
X78485Y743895D01*
X78398Y743848D01*
X78309Y743804D01*
X78219Y743764D01*
X78127Y743727D01*
X78034Y743695D01*
X77940Y743666D01*
X77844Y743640D01*
X77748Y743619D01*
X77650Y743601D01*
X77553Y743588D01*
X77454Y743578D01*
X77356Y743572D01*
X77257Y743570D01*
X77257Y743571D02*
X74773Y743571D01*
X151892Y64241D02*
X163068Y64241D01*
X151892Y64241D02*
X151892Y67346D01*
X151894Y67457D01*
X151900Y67567D01*
X151910Y67678D01*
X151924Y67788D01*
X151941Y67897D01*
X151963Y68006D01*
X151988Y68114D01*
X152018Y68220D01*
X152051Y68326D01*
X152088Y68431D01*
X152128Y68534D01*
X152173Y68635D01*
X152220Y68735D01*
X152272Y68834D01*
X152327Y68930D01*
X152385Y69024D01*
X152446Y69116D01*
X152511Y69206D01*
X152579Y69294D01*
X152650Y69379D01*
X152724Y69461D01*
X152801Y69541D01*
X152881Y69618D01*
X152963Y69692D01*
X153048Y69763D01*
X153136Y69831D01*
X153226Y69896D01*
X153318Y69957D01*
X153412Y70015D01*
X153508Y70070D01*
X153607Y70122D01*
X153707Y70169D01*
X153808Y70214D01*
X153911Y70254D01*
X154016Y70291D01*
X154122Y70324D01*
X154228Y70354D01*
X154336Y70379D01*
X154445Y70401D01*
X154554Y70418D01*
X154664Y70432D01*
X154775Y70442D01*
X154885Y70448D01*
X154996Y70450D01*
X155107Y70448D01*
X155217Y70442D01*
X155328Y70432D01*
X155438Y70418D01*
X155547Y70401D01*
X155656Y70379D01*
X155764Y70354D01*
X155870Y70324D01*
X155976Y70291D01*
X156081Y70254D01*
X156184Y70214D01*
X156285Y70169D01*
X156385Y70122D01*
X156484Y70070D01*
X156580Y70015D01*
X156674Y69957D01*
X156766Y69896D01*
X156856Y69831D01*
X156944Y69763D01*
X157029Y69692D01*
X157111Y69618D01*
X157191Y69541D01*
X157268Y69461D01*
X157342Y69379D01*
X157413Y69294D01*
X157481Y69206D01*
X157546Y69116D01*
X157607Y69024D01*
X157665Y68930D01*
X157720Y68834D01*
X157772Y68735D01*
X157819Y68635D01*
X157864Y68534D01*
X157904Y68431D01*
X157941Y68326D01*
X157974Y68220D01*
X158004Y68114D01*
X158029Y68006D01*
X158051Y67897D01*
X158068Y67788D01*
X158082Y67678D01*
X158092Y67567D01*
X158098Y67457D01*
X158100Y67346D01*
X158101Y67346D02*
X158101Y64241D01*
X158101Y67966D02*
X163068Y70450D01*
X163068Y75579D02*
X163068Y78684D01*
X163066Y78795D01*
X163060Y78905D01*
X163050Y79016D01*
X163036Y79126D01*
X163019Y79235D01*
X162997Y79344D01*
X162972Y79452D01*
X162942Y79558D01*
X162909Y79664D01*
X162872Y79769D01*
X162832Y79872D01*
X162787Y79973D01*
X162740Y80073D01*
X162688Y80172D01*
X162633Y80268D01*
X162575Y80362D01*
X162514Y80454D01*
X162449Y80544D01*
X162381Y80632D01*
X162310Y80717D01*
X162236Y80799D01*
X162159Y80879D01*
X162079Y80956D01*
X161997Y81030D01*
X161912Y81101D01*
X161824Y81169D01*
X161734Y81234D01*
X161642Y81295D01*
X161548Y81353D01*
X161452Y81408D01*
X161353Y81460D01*
X161253Y81507D01*
X161152Y81552D01*
X161049Y81592D01*
X160944Y81629D01*
X160838Y81662D01*
X160732Y81692D01*
X160624Y81717D01*
X160515Y81739D01*
X160406Y81756D01*
X160296Y81770D01*
X160185Y81780D01*
X160075Y81786D01*
X159964Y81788D01*
X159853Y81786D01*
X159743Y81780D01*
X159632Y81770D01*
X159522Y81756D01*
X159413Y81739D01*
X159304Y81717D01*
X159196Y81692D01*
X159090Y81662D01*
X158984Y81629D01*
X158879Y81592D01*
X158776Y81552D01*
X158675Y81507D01*
X158575Y81460D01*
X158476Y81408D01*
X158380Y81353D01*
X158286Y81295D01*
X158194Y81234D01*
X158104Y81169D01*
X158016Y81101D01*
X157931Y81030D01*
X157849Y80956D01*
X157769Y80879D01*
X157692Y80799D01*
X157618Y80717D01*
X157547Y80632D01*
X157479Y80544D01*
X157414Y80454D01*
X157353Y80362D01*
X157295Y80268D01*
X157240Y80172D01*
X157188Y80073D01*
X157141Y79973D01*
X157096Y79872D01*
X157056Y79769D01*
X157019Y79664D01*
X156986Y79558D01*
X156956Y79452D01*
X156931Y79344D01*
X156909Y79235D01*
X156892Y79126D01*
X156878Y79016D01*
X156868Y78905D01*
X156862Y78795D01*
X156860Y78684D01*
X151892Y79304D02*
X151892Y75579D01*
X151892Y79304D02*
X151894Y79403D01*
X151900Y79501D01*
X151910Y79600D01*
X151923Y79697D01*
X151941Y79795D01*
X151962Y79891D01*
X151988Y79987D01*
X152017Y80081D01*
X152049Y80174D01*
X152086Y80266D01*
X152126Y80356D01*
X152170Y80445D01*
X152217Y80532D01*
X152267Y80617D01*
X152321Y80699D01*
X152378Y80780D01*
X152438Y80858D01*
X152502Y80934D01*
X152568Y81007D01*
X152637Y81078D01*
X152709Y81146D01*
X152784Y81210D01*
X152861Y81272D01*
X152940Y81331D01*
X153022Y81386D01*
X153106Y81439D01*
X153191Y81487D01*
X153279Y81533D01*
X153369Y81575D01*
X153460Y81613D01*
X153552Y81647D01*
X153646Y81678D01*
X153741Y81705D01*
X153837Y81729D01*
X153934Y81748D01*
X154031Y81764D01*
X154129Y81776D01*
X154228Y81784D01*
X154327Y81788D01*
X154425Y81788D01*
X154524Y81784D01*
X154623Y81776D01*
X154721Y81764D01*
X154818Y81748D01*
X154915Y81729D01*
X155011Y81705D01*
X155106Y81678D01*
X155200Y81647D01*
X155292Y81613D01*
X155383Y81575D01*
X155473Y81533D01*
X155561Y81487D01*
X155646Y81439D01*
X155730Y81386D01*
X155812Y81331D01*
X155891Y81272D01*
X155968Y81210D01*
X156043Y81146D01*
X156115Y81078D01*
X156184Y81007D01*
X156250Y80934D01*
X156314Y80858D01*
X156374Y80780D01*
X156431Y80699D01*
X156485Y80617D01*
X156535Y80532D01*
X156582Y80445D01*
X156626Y80356D01*
X156666Y80266D01*
X156703Y80174D01*
X156735Y80081D01*
X156764Y79987D01*
X156790Y79891D01*
X156811Y79795D01*
X156829Y79697D01*
X156842Y79600D01*
X156852Y79501D01*
X156858Y79403D01*
X156860Y79304D01*
X156859Y79304D02*
X156859Y76821D01*
M02*
