G04 EAGLE Gerber RS-274X export*
G75*
%MOMM*%
%FSLAX34Y34*%
%LPD*%
%INSoldermask Bottom*%
%IPPOS*%
%AMOC8*
5,1,8,0,0,1.08239X$1,22.5*%
G01*
%ADD10R,1.187200X1.187200*%
%ADD11C,1.187200*%
%ADD12C,4.597400*%
%ADD13R,1.676400X1.676400*%
%ADD14P,1.814519X8X202.500000*%
%ADD15C,1.552400*%
%ADD16C,2.652400*%
%ADD17C,2.112400*%
%ADD18R,1.803400X1.803400*%
%ADD19C,1.803400*%
%ADD20C,0.253078*%
%ADD21R,1.282400X1.282400*%
%ADD22C,1.282400*%
%ADD23C,2.452400*%
%ADD24C,1.162294*%
%ADD25R,0.762000X0.660400*%
%ADD26R,1.384400X1.384400*%
%ADD27C,1.384400*%
%ADD28C,0.609600*%
%ADD29C,1.168400*%


D10*
X401320Y784860D03*
D11*
X386320Y784860D03*
X371320Y784860D03*
X356320Y784860D03*
X341320Y784860D03*
D12*
X63500Y63500D03*
D13*
X677500Y263900D03*
D14*
X677500Y289300D03*
X652100Y263900D03*
X652100Y289300D03*
X626700Y263900D03*
X626700Y289300D03*
X601300Y263900D03*
X601300Y289300D03*
X575900Y263900D03*
X575900Y289300D03*
X550500Y263900D03*
X550500Y289300D03*
X525100Y263900D03*
X525100Y289300D03*
X499700Y263900D03*
X499700Y289300D03*
X474300Y263900D03*
X474300Y289300D03*
X448900Y263900D03*
X448900Y289300D03*
X423500Y263900D03*
X423500Y289300D03*
X398100Y263900D03*
X398100Y289300D03*
X372700Y263900D03*
X372700Y289300D03*
X347300Y263900D03*
X347300Y289300D03*
X321900Y263900D03*
X321900Y289300D03*
X296500Y263900D03*
X296500Y289300D03*
X271100Y263900D03*
X271100Y289300D03*
X245700Y263900D03*
X245700Y289300D03*
D13*
X677500Y517900D03*
D14*
X677500Y543300D03*
X652100Y517900D03*
X652100Y543300D03*
X626700Y517900D03*
X626700Y543300D03*
X601300Y517900D03*
X601300Y543300D03*
X575900Y517900D03*
X575900Y543300D03*
X550500Y517900D03*
X550500Y543300D03*
X525100Y517900D03*
X525100Y543300D03*
X499700Y517900D03*
X499700Y543300D03*
X474300Y517900D03*
X474300Y543300D03*
X448900Y517900D03*
X448900Y543300D03*
X423500Y517900D03*
X423500Y543300D03*
X398100Y517900D03*
X398100Y543300D03*
X372700Y517900D03*
X372700Y543300D03*
X347300Y517900D03*
X347300Y543300D03*
X321900Y517900D03*
X321900Y543300D03*
X296500Y517900D03*
X296500Y543300D03*
X271100Y517900D03*
X271100Y543300D03*
X245700Y517900D03*
X245700Y543300D03*
D15*
X215500Y304800D03*
X190500Y304800D03*
X165500Y304800D03*
D16*
X240500Y234800D03*
X140500Y234800D03*
D17*
X494900Y191500D03*
X444900Y191500D03*
X444900Y316500D03*
X494900Y316500D03*
D18*
X609600Y787400D03*
D19*
X635000Y787400D03*
X660400Y787400D03*
D20*
X635487Y698817D02*
X620793Y698817D01*
X635487Y698817D02*
X635487Y695723D01*
X620793Y695723D01*
X620793Y698817D01*
X620793Y698127D02*
X635487Y698127D01*
X635487Y692317D02*
X620793Y692317D01*
X635487Y692317D02*
X635487Y689223D01*
X620793Y689223D01*
X620793Y692317D01*
X620793Y691627D02*
X635487Y691627D01*
X635487Y685817D02*
X620793Y685817D01*
X635487Y685817D02*
X635487Y682723D01*
X620793Y682723D01*
X620793Y685817D01*
X620793Y685127D02*
X635487Y685127D01*
X635487Y679317D02*
X620793Y679317D01*
X635487Y679317D02*
X635487Y676223D01*
X620793Y676223D01*
X620793Y679317D01*
X620793Y678627D02*
X635487Y678627D01*
X635487Y672817D02*
X620793Y672817D01*
X635487Y672817D02*
X635487Y669723D01*
X620793Y669723D01*
X620793Y672817D01*
X620793Y672127D02*
X635487Y672127D01*
X635487Y666317D02*
X620793Y666317D01*
X635487Y666317D02*
X635487Y663223D01*
X620793Y663223D01*
X620793Y666317D01*
X620793Y665627D02*
X635487Y665627D01*
X635487Y659817D02*
X620793Y659817D01*
X635487Y659817D02*
X635487Y656723D01*
X620793Y656723D01*
X620793Y659817D01*
X620793Y659127D02*
X635487Y659127D01*
X635487Y653317D02*
X620793Y653317D01*
X635487Y653317D02*
X635487Y650223D01*
X620793Y650223D01*
X620793Y653317D01*
X620793Y652627D02*
X635487Y652627D01*
X635487Y646817D02*
X620793Y646817D01*
X635487Y646817D02*
X635487Y643723D01*
X620793Y643723D01*
X620793Y646817D01*
X620793Y646127D02*
X635487Y646127D01*
X635487Y640317D02*
X620793Y640317D01*
X635487Y640317D02*
X635487Y637223D01*
X620793Y637223D01*
X620793Y640317D01*
X620793Y639627D02*
X635487Y639627D01*
X578087Y640317D02*
X563393Y640317D01*
X578087Y640317D02*
X578087Y637223D01*
X563393Y637223D01*
X563393Y640317D01*
X563393Y639627D02*
X578087Y639627D01*
X578087Y646817D02*
X563393Y646817D01*
X578087Y646817D02*
X578087Y643723D01*
X563393Y643723D01*
X563393Y646817D01*
X563393Y646127D02*
X578087Y646127D01*
X578087Y653317D02*
X563393Y653317D01*
X578087Y653317D02*
X578087Y650223D01*
X563393Y650223D01*
X563393Y653317D01*
X563393Y652627D02*
X578087Y652627D01*
X578087Y659817D02*
X563393Y659817D01*
X578087Y659817D02*
X578087Y656723D01*
X563393Y656723D01*
X563393Y659817D01*
X563393Y659127D02*
X578087Y659127D01*
X578087Y666317D02*
X563393Y666317D01*
X578087Y666317D02*
X578087Y663223D01*
X563393Y663223D01*
X563393Y666317D01*
X563393Y665627D02*
X578087Y665627D01*
X578087Y672817D02*
X563393Y672817D01*
X578087Y672817D02*
X578087Y669723D01*
X563393Y669723D01*
X563393Y672817D01*
X563393Y672127D02*
X578087Y672127D01*
X578087Y679317D02*
X563393Y679317D01*
X578087Y679317D02*
X578087Y676223D01*
X563393Y676223D01*
X563393Y679317D01*
X563393Y678627D02*
X578087Y678627D01*
X578087Y685817D02*
X563393Y685817D01*
X578087Y685817D02*
X578087Y682723D01*
X563393Y682723D01*
X563393Y685817D01*
X563393Y685127D02*
X578087Y685127D01*
X578087Y692317D02*
X563393Y692317D01*
X578087Y692317D02*
X578087Y689223D01*
X563393Y689223D01*
X563393Y692317D01*
X563393Y691627D02*
X578087Y691627D01*
X578087Y698817D02*
X563393Y698817D01*
X578087Y698817D02*
X578087Y695723D01*
X563393Y695723D01*
X563393Y698817D01*
X563393Y698127D02*
X578087Y698127D01*
D21*
X406400Y658800D03*
D22*
X381000Y658800D03*
X355600Y658800D03*
X330200Y658800D03*
X304800Y658800D03*
X279400Y658800D03*
X254000Y658800D03*
X228600Y658800D03*
X228600Y738200D03*
X254000Y738200D03*
X279400Y738200D03*
X304800Y738200D03*
X330200Y738200D03*
X355600Y738200D03*
X381000Y738200D03*
X406400Y738200D03*
D15*
X88900Y180500D03*
X88900Y200500D03*
X88900Y225500D03*
X88900Y155500D03*
D23*
X61800Y124800D03*
X61800Y256200D03*
D24*
X679349Y175051D02*
X679349Y155149D01*
X679349Y175051D02*
X689251Y175051D01*
X689251Y155149D01*
X679349Y155149D01*
X679349Y166191D02*
X689251Y166191D01*
X739349Y175051D02*
X739349Y155149D01*
X739349Y175051D02*
X749251Y175051D01*
X749251Y155149D01*
X739349Y155149D01*
X739349Y166191D02*
X749251Y166191D01*
X724251Y123051D02*
X704349Y123051D01*
X724251Y123051D02*
X724251Y113149D01*
X704349Y113149D01*
X704349Y123051D01*
D25*
X593852Y713740D03*
X605028Y713740D03*
D26*
X117600Y698500D03*
D27*
X143000Y698500D03*
X168400Y698500D03*
X193800Y698500D03*
X219200Y698500D03*
X244600Y698500D03*
X270000Y698500D03*
X295400Y698500D03*
X320800Y698500D03*
X346200Y698500D03*
X371600Y698500D03*
X397000Y698500D03*
X422400Y698500D03*
X447800Y698500D03*
X473200Y698500D03*
X498600Y698500D03*
D16*
X38100Y698500D03*
X788100Y698500D03*
X38100Y388500D03*
X788100Y388500D03*
D18*
X393700Y152400D03*
D19*
X419100Y152400D03*
D18*
X596900Y152400D03*
D19*
X571500Y152400D03*
D18*
X520700Y152400D03*
D19*
X495300Y152400D03*
X469900Y152400D03*
D25*
X711962Y222250D03*
X723138Y222250D03*
D12*
X736600Y63500D03*
X63500Y825500D03*
X749300Y825500D03*
D28*
X93980Y787400D02*
X93982Y787587D01*
X93989Y787774D01*
X94001Y787961D01*
X94017Y788147D01*
X94037Y788333D01*
X94062Y788518D01*
X94092Y788703D01*
X94126Y788887D01*
X94165Y789070D01*
X94208Y789252D01*
X94256Y789432D01*
X94308Y789612D01*
X94365Y789790D01*
X94425Y789967D01*
X94491Y790142D01*
X94560Y790316D01*
X94634Y790488D01*
X94712Y790658D01*
X94794Y790826D01*
X94880Y790992D01*
X94970Y791156D01*
X95064Y791317D01*
X95162Y791477D01*
X95264Y791633D01*
X95370Y791788D01*
X95480Y791939D01*
X95593Y792088D01*
X95710Y792234D01*
X95830Y792377D01*
X95954Y792517D01*
X96081Y792654D01*
X96212Y792788D01*
X96346Y792919D01*
X96483Y793046D01*
X96623Y793170D01*
X96766Y793290D01*
X96912Y793407D01*
X97061Y793520D01*
X97212Y793630D01*
X97367Y793736D01*
X97523Y793838D01*
X97683Y793936D01*
X97844Y794030D01*
X98008Y794120D01*
X98174Y794206D01*
X98342Y794288D01*
X98512Y794366D01*
X98684Y794440D01*
X98858Y794509D01*
X99033Y794575D01*
X99210Y794635D01*
X99388Y794692D01*
X99568Y794744D01*
X99748Y794792D01*
X99930Y794835D01*
X100113Y794874D01*
X100297Y794908D01*
X100482Y794938D01*
X100667Y794963D01*
X100853Y794983D01*
X101039Y794999D01*
X101226Y795011D01*
X101413Y795018D01*
X101600Y795020D01*
X101787Y795018D01*
X101974Y795011D01*
X102161Y794999D01*
X102347Y794983D01*
X102533Y794963D01*
X102718Y794938D01*
X102903Y794908D01*
X103087Y794874D01*
X103270Y794835D01*
X103452Y794792D01*
X103632Y794744D01*
X103812Y794692D01*
X103990Y794635D01*
X104167Y794575D01*
X104342Y794509D01*
X104516Y794440D01*
X104688Y794366D01*
X104858Y794288D01*
X105026Y794206D01*
X105192Y794120D01*
X105356Y794030D01*
X105517Y793936D01*
X105677Y793838D01*
X105833Y793736D01*
X105988Y793630D01*
X106139Y793520D01*
X106288Y793407D01*
X106434Y793290D01*
X106577Y793170D01*
X106717Y793046D01*
X106854Y792919D01*
X106988Y792788D01*
X107119Y792654D01*
X107246Y792517D01*
X107370Y792377D01*
X107490Y792234D01*
X107607Y792088D01*
X107720Y791939D01*
X107830Y791788D01*
X107936Y791633D01*
X108038Y791477D01*
X108136Y791317D01*
X108230Y791156D01*
X108320Y790992D01*
X108406Y790826D01*
X108488Y790658D01*
X108566Y790488D01*
X108640Y790316D01*
X108709Y790142D01*
X108775Y789967D01*
X108835Y789790D01*
X108892Y789612D01*
X108944Y789432D01*
X108992Y789252D01*
X109035Y789070D01*
X109074Y788887D01*
X109108Y788703D01*
X109138Y788518D01*
X109163Y788333D01*
X109183Y788147D01*
X109199Y787961D01*
X109211Y787774D01*
X109218Y787587D01*
X109220Y787400D01*
X109218Y787213D01*
X109211Y787026D01*
X109199Y786839D01*
X109183Y786653D01*
X109163Y786467D01*
X109138Y786282D01*
X109108Y786097D01*
X109074Y785913D01*
X109035Y785730D01*
X108992Y785548D01*
X108944Y785368D01*
X108892Y785188D01*
X108835Y785010D01*
X108775Y784833D01*
X108709Y784658D01*
X108640Y784484D01*
X108566Y784312D01*
X108488Y784142D01*
X108406Y783974D01*
X108320Y783808D01*
X108230Y783644D01*
X108136Y783483D01*
X108038Y783323D01*
X107936Y783167D01*
X107830Y783012D01*
X107720Y782861D01*
X107607Y782712D01*
X107490Y782566D01*
X107370Y782423D01*
X107246Y782283D01*
X107119Y782146D01*
X106988Y782012D01*
X106854Y781881D01*
X106717Y781754D01*
X106577Y781630D01*
X106434Y781510D01*
X106288Y781393D01*
X106139Y781280D01*
X105988Y781170D01*
X105833Y781064D01*
X105677Y780962D01*
X105517Y780864D01*
X105356Y780770D01*
X105192Y780680D01*
X105026Y780594D01*
X104858Y780512D01*
X104688Y780434D01*
X104516Y780360D01*
X104342Y780291D01*
X104167Y780225D01*
X103990Y780165D01*
X103812Y780108D01*
X103632Y780056D01*
X103452Y780008D01*
X103270Y779965D01*
X103087Y779926D01*
X102903Y779892D01*
X102718Y779862D01*
X102533Y779837D01*
X102347Y779817D01*
X102161Y779801D01*
X101974Y779789D01*
X101787Y779782D01*
X101600Y779780D01*
X101413Y779782D01*
X101226Y779789D01*
X101039Y779801D01*
X100853Y779817D01*
X100667Y779837D01*
X100482Y779862D01*
X100297Y779892D01*
X100113Y779926D01*
X99930Y779965D01*
X99748Y780008D01*
X99568Y780056D01*
X99388Y780108D01*
X99210Y780165D01*
X99033Y780225D01*
X98858Y780291D01*
X98684Y780360D01*
X98512Y780434D01*
X98342Y780512D01*
X98174Y780594D01*
X98008Y780680D01*
X97844Y780770D01*
X97683Y780864D01*
X97523Y780962D01*
X97367Y781064D01*
X97212Y781170D01*
X97061Y781280D01*
X96912Y781393D01*
X96766Y781510D01*
X96623Y781630D01*
X96483Y781754D01*
X96346Y781881D01*
X96212Y782012D01*
X96081Y782146D01*
X95954Y782283D01*
X95830Y782423D01*
X95710Y782566D01*
X95593Y782712D01*
X95480Y782861D01*
X95370Y783012D01*
X95264Y783167D01*
X95162Y783323D01*
X95064Y783483D01*
X94970Y783644D01*
X94880Y783808D01*
X94794Y783974D01*
X94712Y784142D01*
X94634Y784312D01*
X94560Y784484D01*
X94491Y784658D01*
X94425Y784833D01*
X94365Y785010D01*
X94308Y785188D01*
X94256Y785368D01*
X94208Y785548D01*
X94165Y785730D01*
X94126Y785913D01*
X94092Y786097D01*
X94062Y786282D01*
X94037Y786467D01*
X94017Y786653D01*
X94001Y786839D01*
X93989Y787026D01*
X93982Y787213D01*
X93980Y787400D01*
D29*
X101600Y787400D03*
D28*
X93980Y330200D02*
X93982Y330387D01*
X93989Y330574D01*
X94001Y330761D01*
X94017Y330947D01*
X94037Y331133D01*
X94062Y331318D01*
X94092Y331503D01*
X94126Y331687D01*
X94165Y331870D01*
X94208Y332052D01*
X94256Y332232D01*
X94308Y332412D01*
X94365Y332590D01*
X94425Y332767D01*
X94491Y332942D01*
X94560Y333116D01*
X94634Y333288D01*
X94712Y333458D01*
X94794Y333626D01*
X94880Y333792D01*
X94970Y333956D01*
X95064Y334117D01*
X95162Y334277D01*
X95264Y334433D01*
X95370Y334588D01*
X95480Y334739D01*
X95593Y334888D01*
X95710Y335034D01*
X95830Y335177D01*
X95954Y335317D01*
X96081Y335454D01*
X96212Y335588D01*
X96346Y335719D01*
X96483Y335846D01*
X96623Y335970D01*
X96766Y336090D01*
X96912Y336207D01*
X97061Y336320D01*
X97212Y336430D01*
X97367Y336536D01*
X97523Y336638D01*
X97683Y336736D01*
X97844Y336830D01*
X98008Y336920D01*
X98174Y337006D01*
X98342Y337088D01*
X98512Y337166D01*
X98684Y337240D01*
X98858Y337309D01*
X99033Y337375D01*
X99210Y337435D01*
X99388Y337492D01*
X99568Y337544D01*
X99748Y337592D01*
X99930Y337635D01*
X100113Y337674D01*
X100297Y337708D01*
X100482Y337738D01*
X100667Y337763D01*
X100853Y337783D01*
X101039Y337799D01*
X101226Y337811D01*
X101413Y337818D01*
X101600Y337820D01*
X101787Y337818D01*
X101974Y337811D01*
X102161Y337799D01*
X102347Y337783D01*
X102533Y337763D01*
X102718Y337738D01*
X102903Y337708D01*
X103087Y337674D01*
X103270Y337635D01*
X103452Y337592D01*
X103632Y337544D01*
X103812Y337492D01*
X103990Y337435D01*
X104167Y337375D01*
X104342Y337309D01*
X104516Y337240D01*
X104688Y337166D01*
X104858Y337088D01*
X105026Y337006D01*
X105192Y336920D01*
X105356Y336830D01*
X105517Y336736D01*
X105677Y336638D01*
X105833Y336536D01*
X105988Y336430D01*
X106139Y336320D01*
X106288Y336207D01*
X106434Y336090D01*
X106577Y335970D01*
X106717Y335846D01*
X106854Y335719D01*
X106988Y335588D01*
X107119Y335454D01*
X107246Y335317D01*
X107370Y335177D01*
X107490Y335034D01*
X107607Y334888D01*
X107720Y334739D01*
X107830Y334588D01*
X107936Y334433D01*
X108038Y334277D01*
X108136Y334117D01*
X108230Y333956D01*
X108320Y333792D01*
X108406Y333626D01*
X108488Y333458D01*
X108566Y333288D01*
X108640Y333116D01*
X108709Y332942D01*
X108775Y332767D01*
X108835Y332590D01*
X108892Y332412D01*
X108944Y332232D01*
X108992Y332052D01*
X109035Y331870D01*
X109074Y331687D01*
X109108Y331503D01*
X109138Y331318D01*
X109163Y331133D01*
X109183Y330947D01*
X109199Y330761D01*
X109211Y330574D01*
X109218Y330387D01*
X109220Y330200D01*
X109218Y330013D01*
X109211Y329826D01*
X109199Y329639D01*
X109183Y329453D01*
X109163Y329267D01*
X109138Y329082D01*
X109108Y328897D01*
X109074Y328713D01*
X109035Y328530D01*
X108992Y328348D01*
X108944Y328168D01*
X108892Y327988D01*
X108835Y327810D01*
X108775Y327633D01*
X108709Y327458D01*
X108640Y327284D01*
X108566Y327112D01*
X108488Y326942D01*
X108406Y326774D01*
X108320Y326608D01*
X108230Y326444D01*
X108136Y326283D01*
X108038Y326123D01*
X107936Y325967D01*
X107830Y325812D01*
X107720Y325661D01*
X107607Y325512D01*
X107490Y325366D01*
X107370Y325223D01*
X107246Y325083D01*
X107119Y324946D01*
X106988Y324812D01*
X106854Y324681D01*
X106717Y324554D01*
X106577Y324430D01*
X106434Y324310D01*
X106288Y324193D01*
X106139Y324080D01*
X105988Y323970D01*
X105833Y323864D01*
X105677Y323762D01*
X105517Y323664D01*
X105356Y323570D01*
X105192Y323480D01*
X105026Y323394D01*
X104858Y323312D01*
X104688Y323234D01*
X104516Y323160D01*
X104342Y323091D01*
X104167Y323025D01*
X103990Y322965D01*
X103812Y322908D01*
X103632Y322856D01*
X103452Y322808D01*
X103270Y322765D01*
X103087Y322726D01*
X102903Y322692D01*
X102718Y322662D01*
X102533Y322637D01*
X102347Y322617D01*
X102161Y322601D01*
X101974Y322589D01*
X101787Y322582D01*
X101600Y322580D01*
X101413Y322582D01*
X101226Y322589D01*
X101039Y322601D01*
X100853Y322617D01*
X100667Y322637D01*
X100482Y322662D01*
X100297Y322692D01*
X100113Y322726D01*
X99930Y322765D01*
X99748Y322808D01*
X99568Y322856D01*
X99388Y322908D01*
X99210Y322965D01*
X99033Y323025D01*
X98858Y323091D01*
X98684Y323160D01*
X98512Y323234D01*
X98342Y323312D01*
X98174Y323394D01*
X98008Y323480D01*
X97844Y323570D01*
X97683Y323664D01*
X97523Y323762D01*
X97367Y323864D01*
X97212Y323970D01*
X97061Y324080D01*
X96912Y324193D01*
X96766Y324310D01*
X96623Y324430D01*
X96483Y324554D01*
X96346Y324681D01*
X96212Y324812D01*
X96081Y324946D01*
X95954Y325083D01*
X95830Y325223D01*
X95710Y325366D01*
X95593Y325512D01*
X95480Y325661D01*
X95370Y325812D01*
X95264Y325967D01*
X95162Y326123D01*
X95064Y326283D01*
X94970Y326444D01*
X94880Y326608D01*
X94794Y326774D01*
X94712Y326942D01*
X94634Y327112D01*
X94560Y327284D01*
X94491Y327458D01*
X94425Y327633D01*
X94365Y327810D01*
X94308Y327988D01*
X94256Y328168D01*
X94208Y328348D01*
X94165Y328530D01*
X94126Y328713D01*
X94092Y328897D01*
X94062Y329082D01*
X94037Y329267D01*
X94017Y329453D01*
X94001Y329639D01*
X93989Y329826D01*
X93982Y330013D01*
X93980Y330200D01*
D29*
X101600Y330200D03*
D28*
X525780Y787400D02*
X525782Y787587D01*
X525789Y787774D01*
X525801Y787961D01*
X525817Y788147D01*
X525837Y788333D01*
X525862Y788518D01*
X525892Y788703D01*
X525926Y788887D01*
X525965Y789070D01*
X526008Y789252D01*
X526056Y789432D01*
X526108Y789612D01*
X526165Y789790D01*
X526225Y789967D01*
X526291Y790142D01*
X526360Y790316D01*
X526434Y790488D01*
X526512Y790658D01*
X526594Y790826D01*
X526680Y790992D01*
X526770Y791156D01*
X526864Y791317D01*
X526962Y791477D01*
X527064Y791633D01*
X527170Y791788D01*
X527280Y791939D01*
X527393Y792088D01*
X527510Y792234D01*
X527630Y792377D01*
X527754Y792517D01*
X527881Y792654D01*
X528012Y792788D01*
X528146Y792919D01*
X528283Y793046D01*
X528423Y793170D01*
X528566Y793290D01*
X528712Y793407D01*
X528861Y793520D01*
X529012Y793630D01*
X529167Y793736D01*
X529323Y793838D01*
X529483Y793936D01*
X529644Y794030D01*
X529808Y794120D01*
X529974Y794206D01*
X530142Y794288D01*
X530312Y794366D01*
X530484Y794440D01*
X530658Y794509D01*
X530833Y794575D01*
X531010Y794635D01*
X531188Y794692D01*
X531368Y794744D01*
X531548Y794792D01*
X531730Y794835D01*
X531913Y794874D01*
X532097Y794908D01*
X532282Y794938D01*
X532467Y794963D01*
X532653Y794983D01*
X532839Y794999D01*
X533026Y795011D01*
X533213Y795018D01*
X533400Y795020D01*
X533587Y795018D01*
X533774Y795011D01*
X533961Y794999D01*
X534147Y794983D01*
X534333Y794963D01*
X534518Y794938D01*
X534703Y794908D01*
X534887Y794874D01*
X535070Y794835D01*
X535252Y794792D01*
X535432Y794744D01*
X535612Y794692D01*
X535790Y794635D01*
X535967Y794575D01*
X536142Y794509D01*
X536316Y794440D01*
X536488Y794366D01*
X536658Y794288D01*
X536826Y794206D01*
X536992Y794120D01*
X537156Y794030D01*
X537317Y793936D01*
X537477Y793838D01*
X537633Y793736D01*
X537788Y793630D01*
X537939Y793520D01*
X538088Y793407D01*
X538234Y793290D01*
X538377Y793170D01*
X538517Y793046D01*
X538654Y792919D01*
X538788Y792788D01*
X538919Y792654D01*
X539046Y792517D01*
X539170Y792377D01*
X539290Y792234D01*
X539407Y792088D01*
X539520Y791939D01*
X539630Y791788D01*
X539736Y791633D01*
X539838Y791477D01*
X539936Y791317D01*
X540030Y791156D01*
X540120Y790992D01*
X540206Y790826D01*
X540288Y790658D01*
X540366Y790488D01*
X540440Y790316D01*
X540509Y790142D01*
X540575Y789967D01*
X540635Y789790D01*
X540692Y789612D01*
X540744Y789432D01*
X540792Y789252D01*
X540835Y789070D01*
X540874Y788887D01*
X540908Y788703D01*
X540938Y788518D01*
X540963Y788333D01*
X540983Y788147D01*
X540999Y787961D01*
X541011Y787774D01*
X541018Y787587D01*
X541020Y787400D01*
X541018Y787213D01*
X541011Y787026D01*
X540999Y786839D01*
X540983Y786653D01*
X540963Y786467D01*
X540938Y786282D01*
X540908Y786097D01*
X540874Y785913D01*
X540835Y785730D01*
X540792Y785548D01*
X540744Y785368D01*
X540692Y785188D01*
X540635Y785010D01*
X540575Y784833D01*
X540509Y784658D01*
X540440Y784484D01*
X540366Y784312D01*
X540288Y784142D01*
X540206Y783974D01*
X540120Y783808D01*
X540030Y783644D01*
X539936Y783483D01*
X539838Y783323D01*
X539736Y783167D01*
X539630Y783012D01*
X539520Y782861D01*
X539407Y782712D01*
X539290Y782566D01*
X539170Y782423D01*
X539046Y782283D01*
X538919Y782146D01*
X538788Y782012D01*
X538654Y781881D01*
X538517Y781754D01*
X538377Y781630D01*
X538234Y781510D01*
X538088Y781393D01*
X537939Y781280D01*
X537788Y781170D01*
X537633Y781064D01*
X537477Y780962D01*
X537317Y780864D01*
X537156Y780770D01*
X536992Y780680D01*
X536826Y780594D01*
X536658Y780512D01*
X536488Y780434D01*
X536316Y780360D01*
X536142Y780291D01*
X535967Y780225D01*
X535790Y780165D01*
X535612Y780108D01*
X535432Y780056D01*
X535252Y780008D01*
X535070Y779965D01*
X534887Y779926D01*
X534703Y779892D01*
X534518Y779862D01*
X534333Y779837D01*
X534147Y779817D01*
X533961Y779801D01*
X533774Y779789D01*
X533587Y779782D01*
X533400Y779780D01*
X533213Y779782D01*
X533026Y779789D01*
X532839Y779801D01*
X532653Y779817D01*
X532467Y779837D01*
X532282Y779862D01*
X532097Y779892D01*
X531913Y779926D01*
X531730Y779965D01*
X531548Y780008D01*
X531368Y780056D01*
X531188Y780108D01*
X531010Y780165D01*
X530833Y780225D01*
X530658Y780291D01*
X530484Y780360D01*
X530312Y780434D01*
X530142Y780512D01*
X529974Y780594D01*
X529808Y780680D01*
X529644Y780770D01*
X529483Y780864D01*
X529323Y780962D01*
X529167Y781064D01*
X529012Y781170D01*
X528861Y781280D01*
X528712Y781393D01*
X528566Y781510D01*
X528423Y781630D01*
X528283Y781754D01*
X528146Y781881D01*
X528012Y782012D01*
X527881Y782146D01*
X527754Y782283D01*
X527630Y782423D01*
X527510Y782566D01*
X527393Y782712D01*
X527280Y782861D01*
X527170Y783012D01*
X527064Y783167D01*
X526962Y783323D01*
X526864Y783483D01*
X526770Y783644D01*
X526680Y783808D01*
X526594Y783974D01*
X526512Y784142D01*
X526434Y784312D01*
X526360Y784484D01*
X526291Y784658D01*
X526225Y784833D01*
X526165Y785010D01*
X526108Y785188D01*
X526056Y785368D01*
X526008Y785548D01*
X525965Y785730D01*
X525926Y785913D01*
X525892Y786097D01*
X525862Y786282D01*
X525837Y786467D01*
X525817Y786653D01*
X525801Y786839D01*
X525789Y787026D01*
X525782Y787213D01*
X525780Y787400D01*
D29*
X533400Y787400D03*
M02*
