M48
;GenerationSoftware,Autodesk,EAGLE,9.6.2*%
;CreationDate,2022-05-02T02:39:04Z*%
FMAT,2
ICI,OFF
METRIC,TZ,000.000
T10C0.305
T9C0.730
T8C0.780
T7C0.880
T6C0.889
T5C1.000
T4C1.400
T3C2.300
T2C2.500
T1C3.175
%
G90
M71
T1
X74930Y82550
X6350Y82550
X73660Y6350
X6350Y6350
T2
X78810Y38850
X3810Y38850
X78810Y69850
X3810Y69850
X14050Y23480
X24050Y23480
T3
X6180Y25620
X6180Y12480
T4
X49490Y31650
X44490Y31650
X44490Y19150
X49490Y19150
T5
X8890Y15550
X8890Y22550
X8890Y20050
X8890Y18050
X16550Y30480
X19050Y30480
X21550Y30480
T6
X57590Y51790
X42350Y51790
X46990Y15240
X49530Y15240
X52070Y15240
X57150Y15240
X59690Y15240
X41910Y15240
X39370Y15240
X66040Y78740
X63500Y78740
X60960Y78740
X24570Y54330
X24570Y51790
X27110Y54330
X27110Y51790
X67750Y26390
X67750Y28930
X65210Y26390
X65210Y28930
X62670Y26390
X62670Y28930
X60130Y26390
X60130Y28930
X57590Y26390
X57590Y28930
X55050Y26390
X55050Y28930
X52510Y26390
X52510Y28930
X49970Y26390
X49970Y28930
X47430Y26390
X47430Y28930
X44890Y26390
X44890Y28930
X42350Y26390
X42350Y28930
X39810Y26390
X39810Y28930
X37270Y26390
X37270Y28930
X34730Y26390
X34730Y28930
X32190Y26390
X32190Y28930
X29650Y26390
X29650Y28930
X27110Y26390
X27110Y28930
X24570Y26390
X24570Y28930
X67750Y51790
X67750Y54330
X65210Y51790
X65210Y54330
X62670Y51790
X62670Y54330
X60130Y51790
X60130Y54330
X29650Y54330
X57590Y54330
X55050Y51790
X55050Y54330
X52510Y51790
X52510Y54330
X49970Y51790
X49970Y54330
X47430Y51790
X47430Y54330
X44890Y51790
X44890Y54330
X29650Y51790
X42350Y54330
X39810Y51790
X39810Y54330
X37270Y51790
X37270Y54330
X34730Y51790
X34730Y54330
X32190Y51790
X32190Y54330
T7
X42240Y69850
X44780Y69850
X47320Y69850
X14300Y69850
X16840Y69850
X19380Y69850
X39700Y69850
X37160Y69850
X34620Y69850
X32080Y69850
X29540Y69850
X27000Y69850
X24460Y69850
X21920Y69850
X11760Y69850
X49860Y69850
T8
X40640Y65880
X38100Y65880
X35560Y65880
X30480Y65880
X27940Y65880
X25400Y65880
X22860Y65880
X22860Y73820
X25400Y73820
X27940Y73820
X30480Y73820
X33020Y73820
X35560Y73820
X38100Y73820
X40640Y73820
X33020Y65880
T9
X40132Y78486
X38632Y78486
X37132Y78486
X35632Y78486
X34132Y78486
T10
X74930Y22225
X73660Y20955
X74930Y20955
X73660Y19685
X74930Y19685
X73660Y13970
X74930Y13970
X69850Y22225
X58420Y71374
X58420Y69088
X67310Y20955
X52705Y33020
X69850Y13970
X67310Y22225
X67310Y19685
X68580Y20955
X68580Y22225
X69850Y20955
X69850Y19685
X68580Y19685
X67310Y13970
X68580Y13970
X61468Y71374
X55626Y63754
X73660Y22225
M30